<svg xmlns="http://www.w3.org/2000/svg" xmlns:xlink="http://www.w3.org/1999/xlink" width="500" zoomAndPan="magnify" viewBox="0 0 375 374.999991" height="500" preserveAspectRatio="xMidYMid meet" version="1.0"><defs><clipPath id="78ea100037"><path d="M 3.242188 3.703125 L 371.492188 3.703125 L 371.492188 371.203125 L 3.242188 371.203125 Z M 3.242188 3.703125 " clip-rule="nonzero"/></clipPath></defs><g clip-path="url(#78ea100037)"><path fill="#ffffff" d="M 316.109375 56.4375 C 281.496094 22.410156 235.796875 3.714844 187.292969 3.714844 C 186.847656 3.714844 186.390625 3.714844 185.9375 3.714844 C 85.339844 4.429688 3.5 87.613281 3.5 189.132812 L 3.5 360.417969 C 3.5 364.796875 6.144531 368.75 10.1875 370.429688 C 11.53125 370.984375 12.9375 371.253906 14.335938 371.253906 C 17.15625 371.253906 19.929688 370.148438 22 368.078125 L 52.667969 337.410156 C 59.613281 330.464844 70.472656 329.714844 78.5 335.613281 C 110.210938 358.921875 147.8125 371.242188 187.269531 371.242188 C 187.300781 371.242188 187.335938 371.242188 187.367188 371.242188 C 236.609375 371.222656 282.925781 351.78125 317.789062 316.515625 C 352.660156 281.242188 371.570312 234.679688 371.027344 185.414062 C 370.507812 136.550781 350.992188 90.746094 316.109375 56.4375 Z M 302.386719 301.300781 C 271.632812 332.414062 230.78125 349.570312 187.367188 349.589844 C 187.335938 349.589844 187.3125 349.589844 187.28125 349.589844 C 152.472656 349.589844 119.300781 338.722656 91.34375 318.164062 C 83.855469 312.660156 75.152344 309.949219 66.527344 309.949219 C 55.90625 309.949219 45.382812 314.058594 37.34375 322.097656 L 25.175781 334.269531 L 25.175781 189.140625 C 25.175781 99.488281 97.359375 26.039062 186.089844 25.398438 C 186.488281 25.398438 186.867188 25.398438 187.257812 25.398438 C 275.773438 25.398438 348.390625 97.0625 349.367188 185.683594 C 349.84375 229.109375 333.164062 270.179688 302.386719 301.300781 Z M 302.386719 301.300781 " fill-opacity="1" fill-rule="nonzero"/></g><path fill="#ffffff" d="M 251.824219 219.507812 C 246.089844 213.773438 236.804688 213.773438 231.070312 219.507812 L 222.328125 228.253906 C 222.285156 228.296875 217.101562 232.683594 209.050781 234.070312 C 191.820312 237.03125 174.320312 223.765625 162.671875 212.117188 C 127.929688 177.375 143.089844 156.339844 146.792969 152.1875 L 155.28125 143.703125 C 161.011719 137.972656 161.011719 128.683594 155.28125 122.953125 L 141.441406 109.113281 C 135.707031 103.378906 126.421875 103.378906 120.6875 109.113281 L 111.945312 117.859375 C 109.398438 120.40625 96.480469 134.285156 92.503906 157.433594 C 88.914062 178.328125 92.167969 210.785156 128.078125 246.695312 C 157.078125 275.695312 183.824219 283.398438 204.046875 283.398438 C 208.867188 283.398438 213.3125 282.96875 217.34375 282.273438 C 240.488281 278.296875 254.371094 265.378906 256.917969 262.832031 L 265.664062 254.085938 C 271.394531 248.355469 271.394531 239.066406 265.664062 233.335938 Z M 146.742188 152.234375 C 146.601562 152.382812 146.523438 152.449219 146.523438 152.449219 Z M 146.742188 152.234375 " fill-opacity="1" fill-rule="nonzero"/></svg>