<svg xmlns="http://www.w3.org/2000/svg" xmlns:xlink="http://www.w3.org/1999/xlink" width="500" zoomAndPan="magnify" viewBox="0 0 375 374.999991" height="500" preserveAspectRatio="xMidYMid meet" version="1.0"><defs><clipPath id="9aa6e835a4"><path d="M 6.664062 66.832031 L 368.164062 66.832031 L 368.164062 308.332031 L 6.664062 308.332031 Z M 6.664062 66.832031 " clip-rule="nonzero"/></clipPath></defs><g clip-path="url(#9aa6e835a4)"><path fill="#5271ff" d="M 286.296875 194.730469 C 281.433594 187.84375 272.113281 196.351562 270.089844 197.570312 C 268.058594 198.789062 269.277344 197.980469 260.769531 195.546875 C 252.261719 193.113281 246.179688 198.789062 244.152344 202.835938 C 242.132812 206.886719 230.378906 230.792969 228.355469 234.4375 C 226.324219 238.085938 221.46875 235.660156 221.46875 235.660156 C 221.46875 235.660156 213.160156 230.792969 210.117188 229.578125 C 207.078125 228.359375 204.855469 231 204.855469 231 L 194.929688 241.535156 C 194.929688 241.535156 156.433594 223.601562 152.179688 221.269531 C 147.925781 218.945312 138.203125 194.53125 135.367188 189.464844 C 132.535156 184.398438 133.140625 180.550781 133.140625 180.550781 C 133.140625 180.550781 132.53125 170.015625 132.324219 150.96875 C 132.125 131.925781 124.019531 123.621094 122.398438 120.988281 C 120.78125 118.355469 122.195312 116.128906 122.195312 116.128906 L 124.144531 111.902344 C 135.359375 110.554688 144.054688 101.007812 144.054688 89.425781 C 144.054688 76.917969 133.914062 66.78125 121.40625 66.78125 C 108.894531 66.78125 98.757812 76.921875 98.757812 89.425781 C 98.757812 93.949219 100.085938 98.15625 102.367188 101.695312 C 102.234375 102.847656 102.050781 104.625 101.933594 106.609375 C 101.734375 110.050781 97.476562 111.066406 97.476562 111.066406 C 97.476562 111.066406 87.757812 110.863281 85.324219 110.863281 C 82.890625 110.863281 80.460938 111.875 80.460938 111.875 C 80.460938 111.875 42.167969 131.121094 37.917969 133.148438 C 33.664062 135.175781 34.066406 138.414062 34.066406 138.414062 L 31.230469 171.636719 C 31.230469 171.636719 29.40625 173.054688 28.390625 173.664062 C 27.382812 174.269531 27.382812 175.488281 27.382812 175.488281 C 27.382812 175.488281 27.382812 179.339844 27.382812 180.757812 C 27.382812 182.175781 29.609375 182.984375 29.609375 182.984375 C 29.609375 182.984375 33.664062 184.808594 35.484375 185.820312 C 37.308594 186.835938 37.914062 185.820312 37.914062 185.820312 C 37.914062 185.820312 44.800781 183.996094 46.21875 183.1875 C 47.636719 182.375 48.851562 182.375 48.851562 182.375 L 53.105469 184.605469 C 53.105469 184.605469 53.914062 224.3125 53.914062 228.96875 C 53.914062 233.632812 51.890625 236.0625 51.890625 236.0625 C 51.890625 236.0625 23.121094 275.164062 20.082031 279.410156 C 17.042969 283.667969 20.75 286.214844 20.75 286.214844 L 25.757812 289.542969 C 25.757812 289.542969 29.507812 291.570312 29.507812 293.898438 C 29.507812 296.226562 26.367188 297.042969 26.367188 297.042969 L 6.71875 297.042969 L 6.71875 307.777344 L 368.140625 308.1875 Z M 48.046875 172.042969 C 47.441406 170.828125 49.871094 148.542969 49.871094 148.542969 L 70.332031 138.414062 C 70.332031 138.414062 72.558594 136.792969 72.359375 139.730469 C 72.15625 142.671875 68.710938 154.214844 68.710938 154.214844 L 57.570312 176.703125 C 57.570312 176.699219 48.65625 173.257812 48.046875 172.042969 Z M 58.175781 297.300781 L 52.503906 286.507812 C 52.503906 286.507812 51.289062 283.671875 51.289062 281.847656 C 51.289062 280.023438 52.707031 277.191406 52.707031 277.191406 L 76.207031 243.15625 C 76.207031 243.15625 77.828125 240.320312 78.234375 237.078125 C 78.640625 233.835938 81.070312 212.15625 81.070312 212.15625 C 81.070312 212.15625 81.480469 211.75 82.289062 212.566406 C 83.097656 213.371094 101.535156 237.886719 101.535156 237.886719 C 101.535156 237.886719 102.953125 240.925781 102.953125 242.746094 C 102.953125 244.570312 103.558594 297.046875 103.558594 297.046875 Z M 102.140625 189.265625 C 102.140625 184.804688 101.734375 180.148438 104.164062 176.90625 C 106.597656 173.660156 113.683594 165.761719 113.683594 165.761719 L 114.292969 182.578125 C 114.292969 182.578125 114.292969 187.234375 115.914062 190.476562 C 117.53125 193.722656 124.425781 207.296875 124.425781 207.296875 L 107.609375 199.800781 C 107.609375 199.800781 102.140625 193.722656 102.140625 189.265625 Z M 182.570312 272.324219 C 182.570312 272.324219 179.9375 273.335938 178.3125 273.945312 C 176.695312 274.550781 172.84375 275.363281 171.425781 280.019531 C 170.007812 284.679688 169.195312 287.71875 165.75 288.328125 C 162.304688 288.933594 161.695312 289.746094 159.472656 291.972656 C 157.242188 294.203125 156.785156 296.632812 154.761719 297.042969 C 152.738281 297.445312 139.210938 297.296875 139.210938 297.296875 L 129.285156 281.84375 C 129.285156 281.84375 128.273438 279.410156 128.273438 277.1875 C 128.273438 274.953125 127.257812 235.851562 127.257812 235.851562 C 127.257812 235.851562 126.652344 232.613281 125.234375 230.183594 C 123.816406 227.753906 116.523438 215.398438 116.523438 215.398438 L 187.746094 250.097656 L 183.984375 254.695312 C 183.984375 254.695312 180.742188 258.546875 184.390625 260.164062 C 188.039062 261.785156 193.910156 264.222656 193.910156 264.222656 L 194.117188 265.84375 Z M 182.570312 272.324219 " fill-opacity="1" fill-rule="nonzero"/></g></svg>