<svg xmlns="http://www.w3.org/2000/svg" xmlns:xlink="http://www.w3.org/1999/xlink" width="500" zoomAndPan="magnify" viewBox="0 0 375 374.999991" height="500" preserveAspectRatio="xMidYMid meet" version="1.0"><defs><clipPath id="4dbc9eb099"><path d="M 200 193 L 370.5 193 L 370.5 347 L 200 347 Z M 200 193 " clip-rule="nonzero"/></clipPath></defs><path fill="#5271ff" d="M 332.382812 76.296875 C 334.253906 73.484375 333.496094 69.699219 330.683594 67.828125 C 327.898438 65.972656 324.101562 66.71875 322.21875 69.527344 L 314.707031 80.789062 C 317.859375 83.589844 320.753906 86.640625 323.195312 90.074219 Z M 332.382812 76.296875 " fill-opacity="1" fill-rule="nonzero"/><path fill="#5271ff" d="M 278.4375 176.75 C 308.746094 176.75 333.410156 152.085938 333.410156 121.777344 C 333.410156 109.949219 329.574219 99.054688 323.195312 90.074219 L 283.519531 149.59375 C 282.503906 151.121094 280.84375 152.109375 279.011719 152.28125 C 278.816406 152.292969 278.632812 152.304688 278.4375 152.304688 C 276.800781 152.304688 275.234375 151.65625 274.085938 150.484375 L 249.65625 125.636719 C 247.296875 123.230469 247.320312 119.355469 249.726562 117 C 252.121094 114.640625 255.996094 114.652344 258.363281 117.074219 L 277.519531 136.570312 L 314.707031 80.789062 C 305.007812 72.191406 292.386719 66.804688 278.4375 66.804688 C 248.128906 66.804688 223.464844 91.46875 223.464844 121.777344 C 223.464844 152.085938 248.128906 176.75 278.4375 176.75 Z M 278.4375 176.75 " fill-opacity="1" fill-rule="nonzero"/><path fill="#5271ff" d="M 121.75 153.320312 L 108.640625 229.707031 C 108.25 232.003906 109.191406 234.3125 111.074219 235.679688 C 112.941406 237.050781 115.445312 237.21875 117.5 236.144531 L 186.105469 200.082031 L 254.710938 236.144531 C 255.605469 236.621094 256.570312 236.855469 257.546875 236.855469 C 258.816406 236.855469 260.074219 236.460938 261.136719 235.679688 C 263.019531 234.3125 263.960938 232.003906 263.570312 229.707031 L 257.082031 191.875 C 227.042969 182.710938 205.125 154.761719 205.125 121.765625 C 205.125 103.121094 212.175781 86.140625 223.683594 73.191406 L 191.578125 8.152344 C 189.527344 3.976562 182.671875 3.976562 180.632812 8.152344 L 146.328125 77.652344 L 69.625 88.804688 C 67.328125 89.132812 65.410156 90.746094 64.699219 92.957031 C 63.980469 95.167969 64.578125 97.589844 66.253906 99.210938 L 121.75 153.304688 Z M 121.75 153.320312 " fill-opacity="1" fill-rule="nonzero"/><path fill="#5271ff" d="M 51.226562 276.984375 L 40.464844 339.664062 C 40.074219 341.960938 41.011719 344.269531 42.894531 345.640625 C 44.777344 347.007812 47.269531 347.191406 49.320312 346.105469 L 105.613281 316.515625 L 161.894531 346.105469 C 162.785156 346.582031 163.75 346.8125 164.726562 346.8125 C 165.996094 346.8125 167.257812 346.421875 168.320312 345.640625 C 170.199219 344.269531 171.140625 341.960938 170.75 339.664062 L 160 276.984375 L 205.542969 232.589844 C 205.882812 232.246094 205.980469 231.785156 206.238281 231.378906 L 186.09375 220.789062 L 126.015625 252.367188 C 122.496094 254.199219 118.574219 255.164062 114.640625 255.164062 C 109.425781 255.164062 104.453125 253.554688 100.25 250.488281 C 92.699219 245.015625 88.960938 235.851562 90.550781 226.605469 L 102.035156 159.707031 L 99.503906 157.238281 L 71.96875 213.007812 L 9.042969 222.15625 C 6.746094 222.488281 4.828125 224.101562 4.121094 226.3125 C 3.398438 228.523438 3.996094 230.941406 5.671875 232.566406 L 51.214844 276.960938 Z M 51.226562 276.984375 " fill-opacity="1" fill-rule="nonzero"/><g clip-path="url(#4dbc9eb099)"><path fill="#5271ff" d="M 292.363281 193.707031 C 287.855469 194.574219 283.199219 195.074219 278.4375 195.074219 C 277.691406 195.074219 276.957031 194.988281 276.214844 194.964844 L 281.636719 226.617188 C 283.226562 235.851562 279.488281 245.015625 271.886719 250.523438 C 267.734375 253.566406 262.761719 255.179688 257.546875 255.179688 C 253.601562 255.179688 249.65625 254.199219 246.160156 252.367188 L 222.523438 239.945312 L 222.230469 240.394531 C 221.558594 241.714844 220.335938 243.792969 218.285156 245.769531 L 200.058594 263.535156 L 213.847656 276.984375 L 203.085938 339.664062 C 202.695312 341.960938 203.636719 344.269531 205.515625 345.640625 C 207.386719 347.007812 209.890625 347.191406 211.941406 346.105469 L 268.234375 316.515625 L 324.527344 346.105469 C 325.421875 346.582031 326.386719 346.8125 327.363281 346.8125 C 328.632812 346.8125 329.890625 346.421875 330.953125 345.640625 C 332.835938 344.269531 333.777344 341.960938 333.386719 339.664062 L 322.621094 276.984375 L 368.164062 232.589844 C 369.839844 230.964844 370.4375 228.535156 369.714844 226.335938 C 368.996094 224.125 367.089844 222.511719 364.792969 222.183594 L 301.855469 213.03125 L 292.328125 193.71875 Z M 292.363281 193.707031 " fill-opacity="1" fill-rule="nonzero"/></g></svg>