<svg xmlns="http://www.w3.org/2000/svg" xmlns:xlink="http://www.w3.org/1999/xlink" width="500" zoomAndPan="magnify" viewBox="0 0 375 374.999991" height="500" preserveAspectRatio="xMidYMid meet" version="1.0"><defs><g/><clipPath id="f811c1679e"><path d="M 15 66.363281 L 321 66.363281 L 321 375 L 15 375 Z M 15 66.363281 " clip-rule="nonzero"/></clipPath><clipPath id="ccf698bf33"><path d="M 167.425781 4.464844 L 366.144531 4.464844 L 366.144531 203.183594 L 167.425781 203.183594 Z M 167.425781 4.464844 " clip-rule="nonzero"/></clipPath><clipPath id="f16f361708"><path d="M 266.785156 4.464844 C 211.910156 4.464844 167.425781 48.949219 167.425781 103.824219 C 167.425781 158.699219 211.910156 203.183594 266.785156 203.183594 C 321.660156 203.183594 366.144531 158.699219 366.144531 103.824219 C 366.144531 48.949219 321.660156 4.464844 266.785156 4.464844 Z M 266.785156 4.464844 " clip-rule="nonzero"/></clipPath></defs><g clip-path="url(#f811c1679e)"><path fill="#ffffff" d="M 83.449219 150.914062 C 83.453125 149.535156 83.488281 148.152344 83.554688 146.773438 C 83.625 145.394531 83.726562 144.019531 83.863281 142.644531 C 84 141.269531 84.171875 139.898438 84.375 138.535156 C 84.578125 137.167969 84.816406 135.808594 85.085938 134.453125 C 85.355469 133.097656 85.660156 131.753906 85.996094 130.414062 C 86.332031 129.074219 86.703125 127.742188 87.105469 126.421875 C 87.503906 125.101562 87.941406 123.789062 88.40625 122.488281 C 88.871094 121.191406 89.367188 119.902344 89.898438 118.625 C 90.425781 117.351562 90.988281 116.089844 91.578125 114.839844 C 92.167969 113.59375 92.789062 112.359375 93.441406 111.140625 C 94.09375 109.925781 94.773438 108.722656 95.484375 107.539062 C 96.195312 106.355469 96.933594 105.1875 97.699219 104.039062 C 98.46875 102.890625 99.261719 101.765625 100.085938 100.65625 C 100.910156 99.546875 101.757812 98.457031 102.636719 97.390625 C 103.511719 96.320312 104.414062 95.277344 105.339844 94.253906 C 106.269531 93.230469 107.21875 92.230469 108.195312 91.253906 C 109.171875 90.277344 110.171875 89.324219 111.195312 88.398438 C 112.21875 87.46875 113.261719 86.566406 114.332031 85.691406 C 115.398438 84.816406 116.488281 83.964844 117.59375 83.144531 C 118.703125 82.320312 119.832031 81.523438 120.980469 80.757812 C 122.128906 79.988281 123.296875 79.25 124.480469 78.539062 C 125.664062 77.828125 126.863281 77.148438 128.082031 76.496094 C 129.300781 75.84375 130.53125 75.222656 131.78125 74.632812 C 133.027344 74.042969 134.289062 73.480469 135.566406 72.953125 C 136.839844 72.421875 138.128906 71.925781 139.429688 71.457031 C 140.730469 70.992188 142.039062 70.558594 143.359375 70.15625 C 144.683594 69.753906 146.011719 69.386719 147.351562 69.050781 C 148.691406 68.710938 150.039062 68.410156 151.390625 68.136719 C 152.746094 67.867188 154.105469 67.628906 155.472656 67.425781 C 156.839844 67.222656 158.207031 67.050781 159.582031 66.914062 C 160.957031 66.777344 162.332031 66.675781 163.710938 66.605469 C 165.089844 66.535156 166.472656 66.5 167.851562 66.5 C 279.410156 70.445312 279.632812 231.03125 168.140625 235.316406 C 166.753906 235.320312 165.371094 235.289062 163.988281 235.222656 C 162.605469 235.160156 161.226562 235.058594 159.847656 234.925781 C 158.472656 234.796875 157.097656 234.628906 155.730469 234.429688 C 154.359375 234.230469 152.996094 233.996094 151.636719 233.726562 C 150.28125 233.460938 148.929688 233.160156 147.585938 232.828125 C 146.242188 232.496094 144.910156 232.128906 143.585938 231.730469 C 142.257812 231.332031 140.945312 230.898438 139.640625 230.4375 C 138.335938 229.972656 137.042969 229.476562 135.765625 228.949219 C 134.484375 228.421875 133.21875 227.863281 131.96875 227.277344 C 130.714844 226.6875 129.476562 226.066406 128.257812 225.417969 C 127.035156 224.765625 125.828125 224.085938 124.640625 223.378906 C 123.453125 222.667969 122.28125 221.929688 121.128906 221.164062 C 119.976562 220.398438 118.84375 219.601562 117.734375 218.78125 C 116.621094 217.957031 115.527344 217.109375 114.457031 216.234375 C 113.382812 215.359375 112.335938 214.457031 111.308594 213.527344 C 110.28125 212.601562 109.277344 211.648438 108.296875 210.671875 C 107.316406 209.695312 106.363281 208.695312 105.429688 207.671875 C 104.5 206.644531 103.59375 205.601562 102.714844 204.53125 C 101.835938 203.464844 100.980469 202.375 100.15625 201.265625 C 99.328125 200.152344 98.53125 199.023438 97.761719 197.875 C 96.988281 196.726562 96.25 195.558594 95.535156 194.371094 C 94.820312 193.183594 94.136719 191.984375 93.484375 190.761719 C 92.828125 189.542969 92.207031 188.308594 91.613281 187.058594 C 91.019531 185.808594 90.457031 184.542969 89.925781 183.265625 C 89.394531 181.988281 88.894531 180.699219 88.425781 179.394531 C 87.957031 178.09375 87.523438 176.78125 87.121094 175.457031 C 86.714844 174.132812 86.34375 172.800781 86.007812 171.457031 C 85.667969 170.117188 85.363281 168.765625 85.09375 167.410156 C 84.820312 166.050781 84.582031 164.691406 84.378906 163.320312 C 84.175781 161.953125 84.003906 160.578125 83.867188 159.203125 C 83.730469 157.824219 83.625 156.445312 83.554688 155.0625 C 83.488281 153.679688 83.453125 152.296875 83.449219 150.914062 Z M 253.28125 235.355469 C 252.15625 234.664062 250.957031 234.148438 249.683594 233.808594 C 248.410156 233.464844 247.117188 233.308594 245.796875 233.34375 C 244.480469 233.375 243.191406 233.59375 241.9375 234 C 240.683594 234.402344 239.511719 234.976562 238.421875 235.722656 C 235.910156 237.761719 233.3125 239.691406 230.632812 241.511719 C 227.953125 243.328125 225.199219 245.027344 222.371094 246.605469 C 219.542969 248.1875 216.65625 249.644531 213.703125 250.976562 C 210.75 252.304688 207.746094 253.507812 204.691406 254.582031 C 201.632812 255.652344 198.539062 256.59375 195.402344 257.398438 C 192.265625 258.203125 189.097656 258.871094 185.90625 259.40625 C 182.710938 259.9375 179.5 260.332031 176.269531 260.589844 C 173.042969 260.84375 169.808594 260.960938 166.570312 260.9375 C 163.332031 260.914062 160.101562 260.753906 156.875 260.453125 C 153.652344 260.152344 150.445312 259.710938 147.257812 259.132812 C 144.074219 258.554688 140.917969 257.84375 137.792969 256.992188 C 134.667969 256.144531 131.582031 255.160156 128.542969 254.046875 C 125.503906 252.929688 122.515625 251.6875 119.582031 250.3125 C 116.648438 248.941406 113.78125 247.445312 110.976562 245.824219 C 108.171875 244.207031 105.441406 242.46875 102.789062 240.613281 C 100.132812 238.757812 97.5625 236.792969 95.078125 234.714844 C 94.140625 234.285156 93.167969 233.972656 92.152344 233.777344 C 91.140625 233.582031 90.117188 233.515625 89.089844 233.566406 C 88.058594 233.621094 87.050781 233.796875 86.0625 234.097656 C 85.074219 234.398438 84.136719 234.808594 83.25 235.335938 C 80.65625 237.0625 78.117188 238.867188 75.636719 240.746094 C 73.152344 242.628906 70.730469 244.585938 68.367188 246.617188 C 66.007812 248.648438 63.707031 250.75 61.476562 252.921875 C 59.242188 255.09375 57.078125 257.332031 54.984375 259.640625 C 52.890625 261.945312 50.867188 264.3125 48.917969 266.742188 C 46.96875 269.175781 45.097656 271.664062 43.300781 274.207031 C 41.507812 276.753906 39.792969 279.351562 38.15625 282.003906 C 36.519531 284.65625 34.96875 287.355469 33.5 290.101562 C 32.03125 292.847656 30.648438 295.640625 29.351562 298.472656 C 28.050781 301.304688 26.84375 304.171875 25.722656 307.082031 C 24.601562 309.988281 23.574219 312.925781 22.632812 315.894531 C 21.695312 318.867188 20.847656 321.863281 20.09375 324.886719 C 19.335938 327.90625 18.675781 330.949219 18.109375 334.015625 C 17.542969 337.078125 17.070312 340.15625 16.691406 343.246094 C 16.316406 346.339844 16.03125 349.441406 15.847656 352.550781 C 15.660156 355.660156 15.570312 358.773438 15.574219 361.886719 C 15.574219 362.738281 15.65625 363.582031 15.820312 364.417969 C 15.988281 365.253906 16.234375 366.066406 16.558594 366.851562 C 16.886719 367.640625 17.285156 368.386719 17.757812 369.09375 C 18.230469 369.800781 18.769531 370.457031 19.371094 371.058594 C 19.972656 371.660156 20.628906 372.199219 21.335938 372.671875 C 22.042969 373.144531 22.789062 373.546875 23.578125 373.871094 C 24.363281 374.195312 25.175781 374.441406 26.011719 374.609375 C 26.847656 374.773438 27.691406 374.855469 28.542969 374.855469 L 307.59375 374.855469 C 308.445312 374.855469 309.289062 374.773438 310.125 374.609375 C 310.960938 374.441406 311.769531 374.195312 312.558594 373.871094 C 313.34375 373.546875 314.09375 373.144531 314.800781 372.671875 C 315.507812 372.199219 316.164062 371.660156 316.765625 371.058594 C 317.367188 370.457031 317.90625 369.800781 318.378906 369.09375 C 318.851562 368.386719 319.25 367.640625 319.578125 366.851562 C 319.902344 366.066406 320.148438 365.253906 320.3125 364.417969 C 320.480469 363.582031 320.5625 362.738281 320.5625 361.886719 C 320.558594 358.78125 320.460938 355.675781 320.269531 352.570312 C 320.078125 349.46875 319.792969 346.375 319.414062 343.289062 C 319.03125 340.207031 318.558594 337.136719 317.988281 334.078125 C 317.421875 331.023438 316.761719 327.988281 316.007812 324.972656 C 315.253906 321.953125 314.410156 318.964844 313.476562 316 C 312.539062 313.035156 311.515625 310.101562 310.398438 307.203125 C 309.285156 304.300781 308.082031 301.433594 306.792969 298.605469 C 305.503906 295.777344 304.128906 292.992188 302.671875 290.246094 C 301.210938 287.503906 299.671875 284.804688 298.046875 282.152344 C 296.421875 279.503906 294.71875 276.90625 292.9375 274.359375 C 291.15625 271.8125 289.296875 269.320312 287.363281 266.890625 C 285.425781 264.457031 283.421875 262.082031 281.339844 259.773438 C 279.261719 257.460938 277.113281 255.21875 274.898438 253.039062 C 272.683594 250.859375 270.402344 248.746094 268.054688 246.707031 C 265.710938 244.667969 263.308594 242.699219 260.84375 240.804688 C 258.375 238.910156 255.855469 237.09375 253.28125 235.355469 Z M 253.28125 235.355469 " fill-opacity="1" fill-rule="nonzero"/></g><g clip-path="url(#ccf698bf33)"><g clip-path="url(#f16f361708)"><path fill="#5271ff" d="M 167.425781 4.464844 L 366.144531 4.464844 L 366.144531 203.183594 L 167.425781 203.183594 Z M 167.425781 4.464844 " fill-opacity="1" fill-rule="nonzero"/></g></g><g fill="#ffffff" fill-opacity="1"><g transform="translate(194.050216, 142.001305)"><g><path d="M 60.984375 -63.390625 L 26.953125 -63.390625 L 26.953125 -48.328125 C 28.398438 -49.929688 30.429688 -51.238281 33.046875 -52.25 C 35.671875 -53.269531 38.507812 -53.78125 41.5625 -53.78125 C 47.019531 -53.78125 51.546875 -52.539062 55.140625 -50.0625 C 58.742188 -47.59375 61.378906 -44.394531 63.046875 -40.46875 C 64.722656 -36.539062 65.5625 -32.285156 65.5625 -27.703125 C 65.5625 -19.203125 63.160156 -12.457031 58.359375 -7.46875 C 53.566406 -2.488281 46.804688 0 38.078125 0 C 32.253906 0 27.195312 -1 22.90625 -3 C 18.613281 -5 15.300781 -7.78125 12.96875 -11.34375 C 10.644531 -14.90625 9.375 -19.015625 9.15625 -23.671875 L 27.375 -23.671875 C 27.8125 -21.421875 28.867188 -19.546875 30.546875 -18.046875 C 32.222656 -16.554688 34.515625 -15.8125 37.421875 -15.8125 C 40.835938 -15.8125 43.378906 -16.898438 45.046875 -19.078125 C 46.722656 -21.265625 47.5625 -24.175781 47.5625 -27.8125 C 47.5625 -31.382812 46.6875 -34.113281 44.9375 -36 C 43.195312 -37.894531 40.65625 -38.84375 37.3125 -38.84375 C 34.832031 -38.84375 32.789062 -38.238281 31.1875 -37.03125 C 29.59375 -35.832031 28.539062 -34.253906 28.03125 -32.296875 L 10.03125 -32.296875 L 10.03125 -79.75 L 60.984375 -79.75 Z M 60.984375 -63.390625 "/></g></g></g><g fill="#ffffff" fill-opacity="1"><g transform="translate(264.948168, 142.001305)"><g><path d="M 44.296875 -58.140625 C 43.710938 -60.835938 42.691406 -62.859375 41.234375 -64.203125 C 39.785156 -65.546875 37.710938 -66.21875 35.015625 -66.21875 C 30.867188 -66.21875 27.882812 -64.414062 26.0625 -60.8125 C 24.25 -57.21875 23.304688 -51.53125 23.234375 -43.75 C 24.835938 -46.289062 27.144531 -48.285156 30.15625 -49.734375 C 33.175781 -51.191406 36.503906 -51.921875 40.140625 -51.921875 C 47.273438 -51.921875 53.003906 -49.664062 57.328125 -45.15625 C 61.648438 -40.65625 63.8125 -34.367188 63.8125 -26.296875 C 63.8125 -20.984375 62.738281 -16.328125 60.59375 -12.328125 C 58.457031 -8.328125 55.332031 -5.195312 51.21875 -2.9375 C 47.113281 -0.6875 42.257812 0.4375 36.65625 0.4375 C 25.457031 0.4375 17.675781 -3.070312 13.3125 -10.09375 C 8.945312 -17.113281 6.765625 -27.203125 6.765625 -40.359375 C 6.765625 -54.179688 9.070312 -64.457031 13.6875 -71.1875 C 18.3125 -77.914062 25.710938 -81.28125 35.890625 -81.28125 C 41.347656 -81.28125 45.945312 -80.207031 49.6875 -78.0625 C 53.4375 -75.914062 56.273438 -73.09375 58.203125 -69.59375 C 60.128906 -66.101562 61.273438 -62.285156 61.640625 -58.140625 Z M 35.671875 -37.203125 C 32.546875 -37.203125 29.945312 -36.273438 27.875 -34.421875 C 25.800781 -32.566406 24.765625 -29.929688 24.765625 -26.515625 C 24.765625 -23.015625 25.726562 -20.28125 27.65625 -18.3125 C 29.582031 -16.351562 32.328125 -15.375 35.890625 -15.375 C 39.085938 -15.375 41.613281 -16.335938 43.46875 -18.265625 C 45.320312 -20.203125 46.25 -22.84375 46.25 -26.1875 C 46.25 -29.601562 45.335938 -32.289062 43.515625 -34.25 C 41.703125 -36.21875 39.085938 -37.203125 35.671875 -37.203125 Z M 35.671875 -37.203125 "/></g></g></g></svg>