<svg xmlns="http://www.w3.org/2000/svg" xmlns:xlink="http://www.w3.org/1999/xlink" width="500" zoomAndPan="magnify" viewBox="0 0 375 374.999991" height="500" preserveAspectRatio="xMidYMid meet" version="1.0"><defs><clipPath id="01d8bd7a05"><path d="M 8.015625 18.042969 L 367 18.042969 L 367 273.042969 L 8.015625 273.042969 Z M 8.015625 18.042969 " clip-rule="nonzero"/></clipPath></defs><g clip-path="url(#01d8bd7a05)"><path fill="#5271ff" d="M 366.722656 156.863281 C 366.722656 128.367188 344.574219 105.003906 316.601562 102.933594 L 316.601562 33.066406 C 316.601562 24.949219 310 18.339844 301.875 18.339844 L 22.59375 18.339844 C 14.476562 18.339844 7.867188 24.945312 7.867188 33.066406 L 7.867188 211.785156 C 7.867188 219.90625 14.476562 226.511719 22.59375 226.511719 L 127.6875 226.511719 L 127.6875 244.886719 L 121.015625 244.886719 C 113.175781 244.886719 106.796875 251.265625 106.796875 259.109375 C 106.796875 266.953125 113.175781 273.332031 121.015625 273.332031 L 203.449219 273.332031 C 211.292969 273.332031 217.671875 266.953125 217.671875 259.109375 C 217.671875 251.265625 211.292969 244.886719 203.449219 244.886719 L 196.773438 244.886719 L 196.773438 226.511719 L 301.878906 226.511719 C 310 226.511719 316.605469 219.910156 316.605469 211.785156 L 316.605469 210.785156 C 344.578125 208.71875 366.726562 185.351562 366.726562 156.855469 Z M 22.59375 26.347656 L 301.875 26.347656 C 305.582031 26.347656 308.597656 29.367188 308.597656 33.070312 L 308.597656 102.9375 C 280.617188 104.996094 258.460938 128.367188 258.460938 156.867188 C 258.460938 164.507812 260.074219 171.777344 262.945312 178.375 L 15.871094 178.375 L 15.871094 33.066406 C 15.871094 29.363281 18.890625 26.34375 22.59375 26.34375 Z M 209.664062 259.109375 C 209.664062 262.535156 206.875 265.328125 203.445312 265.328125 L 121.011719 265.328125 C 117.585938 265.328125 114.792969 262.539062 114.792969 259.109375 C 114.792969 255.679688 117.585938 252.890625 121.011719 252.890625 L 203.445312 252.890625 C 206.871094 252.890625 209.664062 255.679688 209.664062 259.109375 Z M 188.765625 244.886719 L 135.6875 244.886719 L 135.6875 226.511719 L 188.765625 226.511719 Z M 301.875 218.507812 L 192.847656 218.507812 C 192.820312 218.507812 192.796875 218.492188 192.773438 218.492188 L 131.691406 218.492188 C 131.664062 218.492188 131.636719 218.507812 131.613281 218.507812 L 22.59375 218.507812 C 18.890625 218.507812 15.871094 215.492188 15.871094 211.785156 L 15.871094 186.371094 L 267.273438 186.371094 C 276.257812 200.117188 291.304688 209.511719 308.597656 210.785156 L 308.597656 211.785156 C 308.597656 215.492188 305.582031 218.507812 301.875 218.507812 Z M 312.59375 202.984375 C 287.15625 202.984375 266.464844 182.292969 266.464844 156.863281 C 266.464844 131.429688 287.15625 110.738281 312.59375 110.738281 C 338.027344 110.738281 358.71875 131.429688 358.71875 156.863281 C 358.71875 182.292969 338.023438 202.984375 312.59375 202.984375 Z M 312.59375 202.984375 " fill-opacity="1" fill-rule="nonzero"/></g><path fill="#5271ff" d="M 49.679688 198.445312 L 28.78125 198.445312 C 26.570312 198.445312 24.78125 200.230469 24.78125 202.445312 C 24.78125 204.660156 26.570312 206.445312 28.78125 206.445312 L 49.679688 206.445312 C 51.886719 206.445312 53.679688 204.660156 53.679688 202.445312 C 53.679688 200.230469 51.886719 198.445312 49.679688 198.445312 Z M 49.679688 198.445312 " fill-opacity="1" fill-rule="nonzero"/><path fill="#5271ff" d="M 84.074219 171.160156 L 121.90625 171.160156 C 124.113281 171.160156 125.90625 169.371094 125.90625 167.15625 L 125.90625 72.058594 C 125.90625 69.847656 124.113281 68.058594 121.90625 68.058594 L 84.074219 68.058594 C 81.863281 68.058594 80.070312 69.847656 80.070312 72.058594 L 80.070312 167.15625 C 80.070312 169.371094 81.863281 171.160156 84.074219 171.160156 Z M 88.074219 76.0625 L 117.902344 76.0625 L 117.902344 163.15625 L 88.074219 163.15625 Z M 88.074219 76.0625 " fill-opacity="1" fill-rule="nonzero"/><path fill="#5271ff" d="M 139.605469 171.160156 L 177.4375 171.160156 C 179.648438 171.160156 181.441406 169.371094 181.441406 167.15625 L 181.441406 36.871094 C 181.441406 34.660156 179.648438 32.871094 177.4375 32.871094 L 139.605469 32.871094 C 137.398438 32.871094 135.605469 34.660156 135.605469 36.871094 L 135.605469 167.15625 C 135.605469 169.371094 137.398438 171.160156 139.605469 171.160156 Z M 143.605469 40.871094 L 173.4375 40.871094 L 173.4375 163.15625 L 143.605469 163.15625 Z M 143.605469 40.871094 " fill-opacity="1" fill-rule="nonzero"/><path fill="#5271ff" d="M 28.535156 171.160156 L 66.371094 171.160156 C 68.578125 171.160156 70.371094 169.371094 70.371094 167.15625 L 70.371094 116.601562 C 70.371094 114.386719 68.578125 112.597656 66.371094 112.597656 L 28.535156 112.597656 C 26.328125 112.597656 24.535156 114.386719 24.535156 116.601562 L 24.535156 167.15625 C 24.535156 169.371094 26.328125 171.160156 28.535156 171.160156 Z M 32.539062 120.601562 L 62.367188 120.601562 L 62.367188 163.15625 L 32.539062 163.15625 Z M 32.539062 120.601562 " fill-opacity="1" fill-rule="nonzero"/><path fill="#5271ff" d="M 208.933594 48.972656 L 276.796875 48.972656 C 279.011719 48.972656 280.800781 47.183594 280.800781 44.972656 C 280.800781 42.757812 279.011719 40.972656 276.796875 40.972656 L 208.933594 40.972656 C 206.71875 40.972656 204.929688 42.757812 204.929688 44.972656 C 204.929688 47.183594 206.71875 48.972656 208.933594 48.972656 Z M 208.933594 48.972656 " fill-opacity="1" fill-rule="nonzero"/><path fill="#5271ff" d="M 191.351562 48.972656 L 196.132812 48.972656 C 198.347656 48.972656 200.136719 47.183594 200.136719 44.972656 C 200.136719 42.757812 198.347656 40.972656 196.132812 40.972656 L 191.351562 40.972656 C 189.144531 40.972656 187.351562 42.757812 187.351562 44.972656 C 187.351562 47.183594 189.144531 48.972656 191.351562 48.972656 Z M 191.351562 48.972656 " fill-opacity="1" fill-rule="nonzero"/><path fill="#5271ff" d="M 208.933594 66.335938 L 295.933594 66.335938 C 298.148438 66.335938 299.9375 64.550781 299.9375 62.335938 C 299.9375 60.125 298.148438 58.335938 295.933594 58.335938 L 208.933594 58.335938 C 206.71875 58.335938 204.929688 60.125 204.929688 62.335938 C 204.929688 64.550781 206.71875 66.335938 208.933594 66.335938 Z M 208.933594 66.335938 " fill-opacity="1" fill-rule="nonzero"/><path fill="#5271ff" d="M 191.351562 66.335938 L 196.132812 66.335938 C 198.347656 66.335938 200.136719 64.550781 200.136719 62.335938 C 200.136719 60.125 198.347656 58.335938 196.132812 58.335938 L 191.351562 58.335938 C 189.144531 58.335938 187.351562 60.125 187.351562 62.335938 C 187.351562 64.550781 189.144531 66.335938 191.351562 66.335938 Z M 191.351562 66.335938 " fill-opacity="1" fill-rule="nonzero"/><path fill="#5271ff" d="M 208.933594 83.707031 L 265.789062 83.707031 C 268 83.707031 269.789062 81.917969 269.789062 79.703125 C 269.789062 77.492188 268 75.703125 265.789062 75.703125 L 208.933594 75.703125 C 206.71875 75.703125 204.929688 77.492188 204.929688 79.703125 C 204.929688 81.917969 206.71875 83.707031 208.933594 83.707031 Z M 208.933594 83.707031 " fill-opacity="1" fill-rule="nonzero"/><path fill="#5271ff" d="M 191.351562 83.707031 L 196.132812 83.707031 C 198.347656 83.707031 200.136719 81.917969 200.136719 79.703125 C 200.136719 77.492188 198.347656 75.703125 196.132812 75.703125 L 191.351562 75.703125 C 189.144531 75.703125 187.351562 77.492188 187.351562 79.703125 C 187.351562 81.917969 189.144531 83.707031 191.351562 83.707031 Z M 191.351562 83.707031 " fill-opacity="1" fill-rule="nonzero"/><path fill="#5271ff" d="M 328.390625 167 C 334.375 158.339844 333.550781 146.363281 325.847656 138.660156 C 317.167969 129.988281 303.066406 129.996094 294.394531 138.660156 C 285.722656 147.332031 285.722656 161.445312 294.394531 170.113281 C 298.730469 174.453125 304.425781 176.617188 310.125 176.617188 C 314.546875 176.617188 318.949219 175.273438 322.734375 172.65625 L 330.476562 180.398438 C 331.257812 181.179688 332.28125 181.570312 333.304688 181.570312 C 334.332031 181.570312 335.355469 181.179688 336.136719 180.398438 C 337.699219 178.835938 337.699219 176.304688 336.136719 174.742188 L 328.390625 166.996094 Z M 300.050781 164.457031 C 297.363281 161.765625 295.882812 158.195312 295.882812 154.382812 C 295.882812 150.574219 297.363281 147.003906 300.050781 144.316406 C 302.824219 141.542969 306.46875 140.152344 310.121094 140.152344 C 313.769531 140.152344 317.414062 141.542969 320.191406 144.316406 C 325.746094 149.871094 325.742188 158.902344 320.191406 164.453125 C 314.644531 170.003906 305.605469 170.003906 300.054688 164.453125 Z M 300.050781 164.457031 " fill-opacity="1" fill-rule="nonzero"/></svg>