<svg xmlns="http://www.w3.org/2000/svg" xmlns:xlink="http://www.w3.org/1999/xlink" width="500" zoomAndPan="magnify" viewBox="0 0 375 374.999991" height="500" preserveAspectRatio="xMidYMid meet" version="1.0"><defs><clipPath id="cba376aea3"><path d="M 4.921875 14 L 367.921875 14 L 367.921875 304.203125 L 4.921875 304.203125 Z M 4.921875 14 " clip-rule="nonzero"/></clipPath></defs><path fill="#5271ff" d="M 39.257812 193.007812 C 31.546875 193.007812 25.265625 199.289062 25.265625 207 C 25.265625 214.710938 31.546875 220.996094 39.257812 220.996094 C 46.972656 220.996094 53.257812 214.714844 53.257812 207 C 53.257812 199.28125 46.976562 193.007812 39.257812 193.007812 Z M 39.257812 212.941406 C 35.988281 212.941406 33.316406 210.277344 33.316406 206.996094 C 33.316406 203.714844 35.984375 201.054688 39.257812 201.054688 C 42.535156 201.054688 45.207031 203.71875 45.207031 206.996094 C 45.207031 210.273438 42.539062 212.941406 39.257812 212.941406 Z M 39.257812 212.941406 " fill-opacity="1" fill-rule="nonzero"/><g clip-path="url(#cba376aea3)"><path fill="#5271ff" d="M 346.117188 151.308594 L 346.117188 28.445312 C 346.117188 20.585938 339.726562 14.195312 331.867188 14.195312 L 19.171875 14.195312 C 11.316406 14.195312 4.921875 20.585938 4.921875 28.445312 L 4.921875 218.605469 C 4.921875 226.484375 11.316406 232.894531 19.171875 232.894531 L 135.035156 232.894531 L 135.035156 267.402344 L 133.238281 267.402344 C 122.980469 267.402344 114.640625 275.742188 114.640625 285.996094 C 114.640625 296.246094 122.980469 304.59375 133.238281 304.59375 L 217.828125 304.59375 C 228.082031 304.59375 236.421875 296.25 236.421875 285.996094 C 236.421875 275.738281 228.082031 267.402344 217.828125 267.402344 L 216.023438 267.402344 L 216.023438 232.894531 L 239.921875 232.894531 C 251.347656 254.429688 273.980469 269.152344 300.019531 269.152344 C 337.511719 269.152344 368.019531 238.648438 368.019531 201.152344 C 368.019531 181.453125 359.550781 163.738281 346.125 151.308594 Z M 12.972656 28.445312 C 12.972656 25.023438 15.75 22.246094 19.171875 22.246094 L 331.867188 22.246094 C 335.289062 22.246094 338.066406 25.023438 338.066406 28.445312 L 338.066406 144.824219 C 336.277344 143.605469 334.421875 142.480469 332.511719 141.4375 L 332.511719 41.246094 C 332.511719 33.855469 326.5 27.839844 319.109375 27.839844 L 31.972656 27.839844 C 24.558594 27.839844 18.527344 33.855469 18.527344 41.246094 L 18.527344 181.128906 L 12.972656 181.128906 Z M 217.828125 275.453125 C 223.640625 275.453125 228.371094 280.183594 228.371094 285.996094 C 228.371094 291.808594 223.640625 296.542969 217.828125 296.542969 L 133.238281 296.542969 C 127.425781 296.542969 122.691406 291.808594 122.691406 285.996094 C 122.691406 280.183594 127.425781 275.453125 133.238281 275.453125 Z M 143.089844 267.402344 L 143.089844 232.894531 L 207.972656 232.894531 L 207.972656 267.402344 Z M 212.078125 224.84375 C 212.050781 224.84375 212.027344 224.828125 212.003906 224.828125 L 139.070312 224.828125 C 139.042969 224.828125 139.019531 224.84375 138.992188 224.84375 L 19.171875 224.84375 C 15.75 224.84375 12.972656 222.046875 12.972656 218.605469 L 12.972656 189.179688 L 233.132812 189.179688 C 232.4375 193.070312 232.007812 197.0625 232.007812 201.152344 C 232.007812 209.492188 233.589844 217.453125 236.351562 224.84375 L 212.074219 224.84375 Z M 235.03125 181.132812 L 26.578125 181.132812 L 26.578125 41.246094 C 26.578125 38.292969 29 35.890625 31.972656 35.890625 L 319.105469 35.890625 C 322.058594 35.890625 324.460938 38.292969 324.460938 41.246094 L 324.460938 137.765625 C 316.859375 134.824219 308.636719 133.144531 300.015625 133.144531 C 269.480469 133.144531 243.59375 153.375 235.027344 181.128906 Z M 300.019531 141.199219 C 333.074219 141.199219 359.96875 168.097656 359.96875 201.15625 C 359.96875 213.578125 356.167969 225.125 349.671875 234.710938 C 343.722656 218.402344 328.199219 207.21875 310.21875 207.21875 L 289.808594 207.21875 C 271.84375 207.21875 256.3125 218.414062 250.382812 234.726562 C 243.875 225.140625 240.070312 213.585938 240.070312 201.15625 C 240.070312 168.097656 266.96875 141.199219 300.027344 141.199219 Z M 300.019531 261.101562 C 282.929688 261.101562 267.527344 253.875 256.597656 242.367188 C 259.792969 226.601562 273.558594 215.265625 289.804688 215.265625 L 310.214844 215.265625 C 326.476562 215.265625 340.230469 226.574219 343.460938 242.339844 C 332.527344 253.863281 317.117188 261.097656 300.015625 261.097656 Z M 300.019531 261.101562 " fill-opacity="1" fill-rule="nonzero"/></g><path fill="#5271ff" d="M 300.015625 202.722656 C 284.582031 202.722656 272.023438 190.164062 272.023438 174.726562 C 272.023438 159.289062 284.582031 146.730469 300.015625 146.730469 C 315.449219 146.730469 328.007812 159.289062 328.007812 174.726562 C 328.007812 190.164062 315.449219 202.722656 300.015625 202.722656 Z M 300.015625 154.78125 C 289.015625 154.78125 280.074219 163.730469 280.074219 174.726562 C 280.074219 185.726562 289.015625 194.671875 300.015625 194.671875 C 311.011719 194.671875 319.957031 185.722656 319.957031 174.726562 C 319.957031 163.734375 311.011719 154.78125 300.015625 154.78125 Z M 300.015625 154.78125 " fill-opacity="1" fill-rule="nonzero"/><path fill="#5271ff" d="M 78.03125 62.753906 C 56.910156 62.753906 39.730469 79.9375 39.730469 101.054688 C 39.730469 122.171875 56.914062 139.355469 78.03125 139.355469 C 99.148438 139.355469 116.335938 122.171875 116.335938 101.054688 C 116.335938 79.9375 99.148438 62.753906 78.03125 62.753906 Z M 78.03125 70.804688 C 94.714844 70.804688 108.285156 84.375 108.285156 101.054688 C 108.285156 106.105469 107.023438 110.863281 104.820312 115.058594 C 100.636719 107.460938 92.601562 102.433594 83.496094 102.433594 L 72.5625 102.433594 C 63.5625 102.433594 55.476562 107.519531 51.269531 115.125 C 49.050781 110.917969 47.777344 106.132812 47.777344 101.054688 C 47.777344 84.375 61.347656 70.804688 78.027344 70.804688 Z M 56.84375 122.605469 C 58.71875 115.554688 65.191406 110.480469 72.5625 110.480469 L 83.496094 110.480469 C 90.960938 110.480469 97.335938 115.523438 99.222656 122.605469 C 93.761719 127.976562 86.28125 131.300781 78.03125 131.300781 C 69.785156 131.300781 62.304688 127.976562 56.84375 122.605469 Z M 56.84375 122.605469 " fill-opacity="1" fill-rule="nonzero"/><path fill="#5271ff" d="M 78.03125 100.277344 C 85.410156 100.277344 91.417969 94.277344 91.417969 86.894531 C 91.417969 79.511719 85.410156 73.511719 78.03125 73.511719 C 70.652344 73.511719 64.648438 79.515625 64.648438 86.894531 C 64.648438 94.273438 70.652344 100.277344 78.03125 100.277344 Z M 78.03125 81.5625 C 80.972656 81.5625 83.367188 83.953125 83.367188 86.894531 C 83.367188 89.832031 80.976562 92.226562 78.03125 92.226562 C 75.089844 92.226562 72.699219 89.832031 72.699219 86.894531 C 72.699219 83.953125 75.089844 81.5625 78.03125 81.5625 Z M 78.03125 81.5625 " fill-opacity="1" fill-rule="nonzero"/><path fill="#5271ff" d="M 172.472656 70.804688 L 125.644531 70.804688 C 123.421875 70.804688 121.621094 69.003906 121.621094 66.777344 C 121.621094 64.550781 123.421875 62.753906 125.644531 62.753906 L 172.472656 62.753906 C 174.695312 62.753906 176.5 64.550781 176.5 66.777344 C 176.5 69.003906 174.695312 70.804688 172.472656 70.804688 Z M 172.472656 70.804688 " fill-opacity="1" fill-rule="nonzero"/><path fill="#5271ff" d="M 205.125 84.710938 L 125.644531 84.710938 C 123.421875 84.710938 121.621094 82.910156 121.621094 80.6875 C 121.621094 78.460938 123.421875 76.660156 125.644531 76.660156 L 205.125 76.660156 C 207.34375 76.660156 209.148438 78.460938 209.148438 80.6875 C 209.148438 82.910156 207.34375 84.710938 205.125 84.710938 Z M 205.125 84.710938 " fill-opacity="1" fill-rule="nonzero"/><path fill="#5271ff" d="M 172.472656 98.625 L 125.644531 98.625 C 123.421875 98.625 121.621094 96.824219 121.621094 94.597656 C 121.621094 92.371094 123.421875 90.574219 125.644531 90.574219 L 172.472656 90.574219 C 174.695312 90.574219 176.5 92.371094 176.5 94.597656 C 176.5 96.824219 174.695312 98.625 172.472656 98.625 Z M 172.472656 98.625 " fill-opacity="1" fill-rule="nonzero"/><path fill="#5271ff" d="M 186.46875 112.535156 L 125.644531 112.535156 C 123.421875 112.535156 121.621094 110.734375 121.621094 108.507812 C 121.621094 106.285156 123.421875 104.484375 125.644531 104.484375 L 186.46875 104.484375 C 188.691406 104.484375 190.496094 106.285156 190.496094 108.507812 C 190.496094 110.734375 188.691406 112.535156 186.46875 112.535156 Z M 186.46875 112.535156 " fill-opacity="1" fill-rule="nonzero"/><path fill="#5271ff" d="M 172.472656 126.441406 L 125.644531 126.441406 C 123.421875 126.441406 121.621094 124.644531 121.621094 122.417969 C 121.621094 120.191406 123.421875 118.390625 125.644531 118.390625 L 172.472656 118.390625 C 174.695312 118.390625 176.5 120.191406 176.5 122.417969 C 176.5 124.644531 174.695312 126.441406 172.472656 126.441406 Z M 172.472656 126.441406 " fill-opacity="1" fill-rule="nonzero"/><path fill="#5271ff" d="M 207.703125 140.355469 L 125.644531 140.355469 C 123.421875 140.355469 121.621094 138.554688 121.621094 136.328125 C 121.621094 134.101562 123.421875 132.304688 125.644531 132.304688 L 207.703125 132.304688 C 209.925781 132.304688 211.730469 134.101562 211.730469 136.328125 C 211.730469 138.554688 209.925781 140.355469 207.703125 140.355469 Z M 207.703125 140.355469 " fill-opacity="1" fill-rule="nonzero"/><path fill="#5271ff" d="M 198.113281 154.269531 L 183.367188 154.269531 C 181.144531 154.269531 179.339844 152.472656 179.339844 150.246094 C 179.339844 148.019531 181.144531 146.21875 183.367188 146.21875 L 198.113281 146.21875 C 200.335938 146.21875 202.140625 148.019531 202.140625 150.246094 C 202.140625 152.472656 200.335938 154.269531 198.113281 154.269531 Z M 198.113281 154.269531 " fill-opacity="1" fill-rule="nonzero"/><path fill="#5271ff" d="M 172.472656 154.269531 L 125.644531 154.269531 C 123.421875 154.269531 121.621094 152.472656 121.621094 150.246094 C 121.621094 148.019531 123.421875 146.21875 125.644531 146.21875 L 172.472656 146.21875 C 174.695312 146.21875 176.5 148.019531 176.5 150.246094 C 176.5 152.472656 174.695312 154.269531 172.472656 154.269531 Z M 172.472656 154.269531 " fill-opacity="1" fill-rule="nonzero"/></svg>