<svg xmlns="http://www.w3.org/2000/svg" xmlns:xlink="http://www.w3.org/1999/xlink" width="500" zoomAndPan="magnify" viewBox="0 0 375 374.999991" height="500" preserveAspectRatio="xMidYMid meet" version="1.0"><defs><clipPath id="3ae65a6c2a"><path d="M 3.238281 6.75 L 371.488281 6.75 L 371.488281 301.5 L 3.238281 301.5 Z M 3.238281 6.75 " clip-rule="nonzero"/></clipPath></defs><path fill="#5271ff" d="M 38.085938 188.476562 C 30.257812 188.476562 23.886719 194.851562 23.886719 202.679688 C 23.886719 210.507812 30.257812 216.882812 38.085938 216.882812 C 45.914062 216.882812 52.292969 210.511719 52.292969 202.679688 C 52.292969 194.847656 45.917969 188.476562 38.085938 188.476562 Z M 38.085938 208.710938 C 34.765625 208.710938 32.058594 206.003906 32.058594 202.675781 C 32.058594 199.34375 34.761719 196.644531 38.085938 196.644531 C 41.414062 196.644531 44.121094 199.347656 44.121094 202.675781 C 44.121094 206 41.417969 208.710938 38.085938 208.710938 Z M 38.085938 208.710938 " fill-opacity="1" fill-rule="nonzero"/><g clip-path="url(#3ae65a6c2a)"><path fill="#5271ff" d="M 349.53125 146.15625 L 349.53125 21.453125 C 349.53125 13.480469 343.042969 6.992188 335.070312 6.992188 L 17.699219 6.992188 C 9.726562 6.992188 3.238281 13.480469 3.238281 21.453125 L 3.238281 214.457031 C 3.238281 222.453125 9.726562 228.960938 17.699219 228.960938 L 135.296875 228.960938 L 135.296875 263.984375 L 133.46875 263.984375 C 123.058594 263.984375 114.59375 272.449219 114.59375 282.855469 C 114.59375 293.261719 123.058594 301.730469 133.46875 301.730469 L 219.324219 301.730469 C 229.730469 301.730469 238.195312 293.265625 238.195312 282.855469 C 238.195312 272.445312 229.730469 263.984375 219.324219 263.984375 L 217.492188 263.984375 L 217.492188 228.960938 L 241.75 228.960938 C 253.34375 250.820312 276.316406 265.761719 302.742188 265.761719 C 340.796875 265.761719 371.761719 234.800781 371.761719 196.742188 C 371.761719 176.75 363.164062 158.769531 349.539062 146.15625 Z M 11.410156 21.453125 C 11.410156 17.980469 14.226562 15.164062 17.699219 15.164062 L 335.070312 15.164062 C 338.542969 15.164062 341.359375 17.980469 341.359375 21.453125 L 341.359375 139.574219 C 339.542969 138.339844 337.660156 137.195312 335.722656 136.136719 L 335.722656 34.445312 C 335.722656 26.945312 329.617188 20.839844 322.117188 20.839844 L 30.691406 20.839844 C 23.167969 20.839844 17.046875 26.945312 17.046875 34.445312 L 17.046875 176.421875 L 11.410156 176.421875 Z M 236.78125 176.421875 L 25.21875 176.421875 L 25.21875 34.445312 C 25.21875 31.453125 27.671875 29.011719 30.691406 29.011719 L 322.117188 29.011719 C 325.113281 29.011719 327.550781 31.453125 327.550781 34.445312 L 327.550781 132.410156 C 319.835938 129.425781 311.492188 127.71875 302.738281 127.71875 C 271.75 127.71875 245.476562 148.25 236.78125 176.421875 Z M 219.324219 272.152344 C 225.222656 272.152344 230.023438 276.953125 230.023438 282.855469 C 230.023438 288.753906 225.222656 293.558594 219.324219 293.558594 L 133.46875 293.558594 C 127.570312 293.558594 122.765625 288.753906 122.765625 282.855469 C 122.765625 276.953125 127.570312 272.152344 133.46875 272.152344 Z M 143.472656 263.984375 L 143.472656 228.960938 L 209.324219 228.960938 L 209.324219 263.984375 Z M 213.488281 220.789062 C 213.460938 220.789062 213.4375 220.773438 213.414062 220.773438 L 139.390625 220.773438 C 139.359375 220.773438 139.335938 220.789062 139.3125 220.789062 L 17.699219 220.789062 C 14.226562 220.789062 11.410156 217.949219 11.410156 214.457031 L 11.410156 184.59375 L 234.859375 184.59375 C 234.152344 188.542969 233.71875 192.589844 233.71875 196.742188 C 233.71875 205.207031 235.324219 213.289062 238.125 220.789062 L 213.484375 220.789062 Z M 302.742188 257.589844 C 269.191406 257.589844 241.894531 230.292969 241.894531 196.742188 C 241.894531 163.191406 269.191406 135.890625 302.742188 135.890625 C 336.292969 135.890625 363.589844 163.191406 363.589844 196.742188 C 363.589844 230.292969 336.292969 257.589844 302.742188 257.589844 Z M 302.742188 257.589844 " fill-opacity="1" fill-rule="nonzero"/></g><path fill="#5271ff" d="M 336.367188 177.613281 L 310.382812 151.628906 C 309.617188 150.859375 308.578125 150.433594 307.496094 150.433594 L 271.992188 150.433594 C 269.734375 150.433594 267.90625 152.257812 267.90625 154.519531 L 267.90625 238.96875 C 267.90625 241.226562 269.734375 243.050781 271.992188 243.050781 L 333.480469 243.050781 C 335.734375 243.050781 337.566406 241.226562 337.566406 238.96875 L 337.566406 180.503906 C 337.566406 179.414062 337.136719 178.378906 336.367188 177.613281 Z M 311.582031 164.378906 L 323.617188 176.417969 L 311.582031 176.417969 Z M 276.078125 234.882812 L 276.078125 158.601562 L 303.410156 158.601562 L 303.410156 180.503906 C 303.410156 182.761719 305.238281 184.585938 307.496094 184.585938 L 329.394531 184.585938 L 329.394531 234.882812 Z M 276.078125 234.882812 " fill-opacity="1" fill-rule="nonzero"/><path fill="#5271ff" d="M 317.585938 189.597656 L 287.882812 189.597656 C 285.628906 189.597656 283.796875 191.421875 283.796875 193.683594 C 283.796875 195.941406 285.628906 197.769531 287.882812 197.769531 L 317.585938 197.769531 C 319.839844 197.769531 321.671875 195.941406 321.671875 193.683594 C 321.671875 191.421875 319.839844 189.597656 317.585938 189.597656 Z M 317.585938 189.597656 " fill-opacity="1" fill-rule="nonzero"/><path fill="#5271ff" d="M 317.585938 201.570312 L 287.882812 201.570312 C 285.628906 201.570312 283.796875 203.398438 283.796875 205.65625 C 283.796875 207.917969 285.628906 209.742188 287.882812 209.742188 L 317.585938 209.742188 C 319.839844 209.742188 321.671875 207.917969 321.671875 205.65625 C 321.671875 203.398438 319.839844 201.570312 317.585938 201.570312 Z M 317.585938 201.570312 " fill-opacity="1" fill-rule="nonzero"/><path fill="#5271ff" d="M 302.738281 213.550781 L 287.886719 213.550781 C 285.632812 213.550781 283.804688 215.375 283.804688 217.636719 C 283.804688 219.894531 285.632812 221.722656 287.886719 221.722656 L 302.738281 221.722656 C 304.996094 221.722656 306.824219 219.894531 306.824219 217.636719 C 306.824219 215.375 304.996094 213.550781 302.738281 213.550781 Z M 302.738281 213.550781 " fill-opacity="1" fill-rule="nonzero"/><path fill="#5271ff" d="M 210.785156 75.964844 L 184.800781 49.980469 C 184.03125 49.210938 182.996094 48.78125 181.914062 48.78125 L 146.410156 48.78125 C 144.152344 48.78125 142.324219 50.609375 142.324219 52.867188 L 142.324219 137.316406 C 142.324219 139.578125 144.152344 141.402344 146.410156 141.402344 L 207.898438 141.402344 C 210.152344 141.402344 211.980469 139.578125 211.980469 137.316406 L 211.980469 78.851562 C 211.980469 77.765625 211.554688 76.726562 210.785156 75.964844 Z M 185.996094 62.730469 L 198.035156 74.765625 L 185.996094 74.765625 Z M 150.496094 133.230469 L 150.496094 56.949219 L 177.828125 56.949219 L 177.828125 78.847656 C 177.828125 81.109375 179.65625 82.933594 181.914062 82.933594 L 203.8125 82.933594 L 203.8125 133.226562 L 150.496094 133.226562 Z M 150.496094 133.230469 " fill-opacity="1" fill-rule="nonzero"/><path fill="#5271ff" d="M 192.003906 87.941406 L 162.300781 87.941406 C 160.046875 87.941406 158.214844 89.769531 158.214844 92.027344 C 158.214844 94.289062 160.046875 96.113281 162.300781 96.113281 L 192.003906 96.113281 C 194.257812 96.113281 196.089844 94.289062 196.089844 92.027344 C 196.089844 89.769531 194.257812 87.941406 192.003906 87.941406 Z M 192.003906 87.941406 " fill-opacity="1" fill-rule="nonzero"/><path fill="#5271ff" d="M 192.003906 99.921875 L 162.300781 99.921875 C 160.046875 99.921875 158.214844 101.75 158.214844 104.007812 C 158.214844 106.265625 160.046875 108.09375 162.300781 108.09375 L 192.003906 108.09375 C 194.257812 108.09375 196.089844 106.265625 196.089844 104.007812 C 196.089844 101.75 194.257812 99.921875 192.003906 99.921875 Z M 192.003906 99.921875 " fill-opacity="1" fill-rule="nonzero"/><path fill="#5271ff" d="M 177.152344 111.898438 L 162.300781 111.898438 C 160.046875 111.898438 158.214844 113.722656 158.214844 115.984375 C 158.214844 118.242188 160.046875 120.066406 162.300781 120.066406 L 177.152344 120.066406 C 179.40625 120.066406 181.238281 118.242188 181.238281 115.984375 C 181.238281 113.722656 179.40625 111.898438 177.152344 111.898438 Z M 177.152344 111.898438 " fill-opacity="1" fill-rule="nonzero"/><path fill="#5271ff" d="M 135.246094 75.964844 L 109.261719 49.980469 C 108.496094 49.210938 107.457031 48.78125 106.375 48.78125 L 70.871094 48.78125 C 68.613281 48.78125 66.785156 50.609375 66.785156 52.867188 L 66.785156 137.316406 C 66.785156 139.578125 68.613281 141.402344 70.871094 141.402344 L 132.359375 141.402344 C 134.613281 141.402344 136.445312 139.578125 136.445312 137.316406 L 136.445312 78.851562 C 136.445312 77.765625 136.015625 76.726562 135.246094 75.964844 Z M 110.460938 62.730469 L 122.496094 74.765625 L 110.460938 74.765625 Z M 74.957031 133.230469 L 74.957031 56.949219 L 102.289062 56.949219 L 102.289062 78.847656 C 102.289062 81.109375 104.117188 82.933594 106.375 82.933594 L 128.273438 82.933594 L 128.273438 133.226562 L 74.957031 133.226562 Z M 74.957031 133.230469 " fill-opacity="1" fill-rule="nonzero"/><path fill="#5271ff" d="M 116.464844 87.941406 L 86.761719 87.941406 C 84.507812 87.941406 82.679688 89.769531 82.679688 92.027344 C 82.679688 94.289062 84.507812 96.113281 86.761719 96.113281 L 116.464844 96.113281 C 118.722656 96.113281 120.550781 94.289062 120.550781 92.027344 C 120.550781 89.769531 118.722656 87.941406 116.464844 87.941406 Z M 116.464844 87.941406 " fill-opacity="1" fill-rule="nonzero"/><path fill="#5271ff" d="M 116.464844 99.921875 L 86.761719 99.921875 C 84.507812 99.921875 82.679688 101.75 82.679688 104.007812 C 82.679688 106.265625 84.507812 108.09375 86.761719 108.09375 L 116.464844 108.09375 C 118.722656 108.09375 120.550781 106.265625 120.550781 104.007812 C 120.550781 101.75 118.722656 99.921875 116.464844 99.921875 Z M 116.464844 99.921875 " fill-opacity="1" fill-rule="nonzero"/><path fill="#5271ff" d="M 101.613281 111.898438 L 86.761719 111.898438 C 84.507812 111.898438 82.679688 113.722656 82.679688 115.984375 C 82.679688 118.242188 84.507812 120.066406 86.761719 120.066406 L 101.613281 120.066406 C 103.871094 120.066406 105.699219 118.242188 105.699219 115.984375 C 105.699219 113.722656 103.871094 111.898438 101.613281 111.898438 Z M 101.613281 111.898438 " fill-opacity="1" fill-rule="nonzero"/></svg>