<svg xmlns="http://www.w3.org/2000/svg" xmlns:xlink="http://www.w3.org/1999/xlink" width="500" zoomAndPan="magnify" viewBox="0 0 375 374.999991" height="500" preserveAspectRatio="xMidYMid meet" version="1.0"><defs><clipPath id="380bd59f33"><path d="M 2.976562 4.5 L 371.976562 4.5 L 371.976562 300 L 2.976562 300 Z M 2.976562 4.5 " clip-rule="nonzero"/></clipPath></defs><path fill="#5271ff" d="M 37.875 186.484375 C 30.039062 186.484375 23.65625 192.867188 23.65625 200.707031 C 23.65625 208.546875 30.039062 214.933594 37.875 214.933594 C 45.714844 214.933594 52.101562 208.550781 52.101562 200.707031 C 52.101562 192.863281 45.71875 186.484375 37.875 186.484375 Z M 37.875 206.746094 C 34.550781 206.746094 31.839844 204.039062 31.839844 200.703125 C 31.839844 197.367188 34.546875 194.664062 37.875 194.664062 C 41.207031 194.664062 43.917969 197.375 43.917969 200.703125 C 43.917969 204.035156 41.210938 206.746094 37.875 206.746094 Z M 37.875 206.746094 " fill-opacity="1" fill-rule="nonzero"/><g clip-path="url(#380bd59f33)"><path fill="#5271ff" d="M 349.757812 144.105469 L 349.757812 19.230469 C 349.757812 11.242188 343.257812 4.746094 335.273438 4.746094 L 17.460938 4.746094 C 9.476562 4.746094 2.976562 11.242188 2.976562 19.230469 L 2.976562 212.503906 C 2.976562 220.507812 9.476562 227.027344 17.460938 227.027344 L 135.222656 227.027344 L 135.222656 262.097656 L 133.390625 262.097656 C 122.96875 262.097656 114.492188 270.574219 114.492188 280.996094 C 114.492188 291.414062 122.96875 299.898438 133.390625 299.898438 L 219.367188 299.898438 C 229.789062 299.898438 238.265625 291.417969 238.265625 280.996094 C 238.265625 270.570312 229.789062 262.097656 219.367188 262.097656 L 217.535156 262.097656 L 217.535156 227.027344 L 241.824219 227.027344 C 253.433594 248.914062 276.441406 263.878906 302.902344 263.878906 C 341.007812 263.878906 372.015625 232.875 372.015625 194.761719 C 372.015625 174.746094 363.410156 156.738281 349.765625 144.105469 Z M 11.160156 19.230469 C 11.160156 15.753906 13.984375 12.929688 17.460938 12.929688 L 335.273438 12.929688 C 338.75 12.929688 341.574219 15.753906 341.574219 19.230469 L 341.574219 137.511719 C 339.753906 136.277344 337.867188 135.132812 335.929688 134.074219 L 335.929688 32.238281 C 335.929688 24.730469 329.816406 18.617188 322.304688 18.617188 L 30.472656 18.617188 C 22.933594 18.617188 16.804688 24.730469 16.804688 32.238281 L 16.804688 174.414062 L 11.160156 174.414062 Z M 236.847656 174.414062 L 24.988281 174.414062 L 24.988281 32.238281 C 24.988281 29.242188 27.449219 26.796875 30.472656 26.796875 L 322.304688 26.796875 C 325.300781 26.796875 327.746094 29.242188 327.746094 32.238281 L 327.746094 130.339844 C 320.019531 127.351562 311.664062 125.644531 302.898438 125.644531 C 271.867188 125.644531 245.554688 146.203125 236.847656 174.414062 Z M 219.367188 270.28125 C 225.273438 270.28125 230.082031 275.085938 230.082031 280.996094 C 230.082031 286.902344 225.273438 291.714844 219.367188 291.714844 L 133.390625 291.714844 C 127.484375 291.714844 122.671875 286.902344 122.671875 280.996094 C 122.671875 275.085938 127.484375 270.28125 133.390625 270.28125 Z M 143.40625 262.097656 L 143.40625 227.027344 L 209.351562 227.027344 L 209.351562 262.097656 Z M 213.523438 218.84375 C 213.496094 218.84375 213.472656 218.828125 213.445312 218.828125 L 139.320312 218.828125 C 139.292969 218.828125 139.265625 218.84375 139.242188 218.84375 L 17.460938 218.84375 C 13.984375 218.84375 11.160156 216 11.160156 212.503906 L 11.160156 182.59375 L 234.921875 182.59375 C 234.214844 186.550781 233.78125 190.605469 233.78125 194.761719 C 233.78125 203.238281 235.386719 211.332031 238.195312 218.84375 L 213.519531 218.84375 Z M 302.902344 255.695312 C 269.304688 255.695312 241.96875 228.359375 241.96875 194.761719 C 241.96875 161.164062 269.304688 133.828125 302.902344 133.828125 C 336.5 133.828125 363.835938 161.164062 363.835938 194.761719 C 363.835938 228.359375 336.5 255.695312 302.902344 255.695312 Z M 302.902344 255.695312 " fill-opacity="1" fill-rule="nonzero"/></g><path fill="#5271ff" d="M 311.828125 239.082031 L 293.96875 239.082031 C 291.710938 239.082031 289.875 237.25 289.875 234.992188 L 289.875 226.015625 C 287.207031 224.898438 284.695312 223.441406 282.371094 221.65625 L 274.570312 226.160156 C 273.628906 226.699219 272.503906 226.84375 271.464844 226.570312 C 270.417969 226.289062 269.523438 225.601562 268.980469 224.660156 L 260.050781 209.191406 C 258.921875 207.238281 259.59375 204.734375 261.546875 203.605469 L 269.332031 199.109375 C 269.140625 197.65625 269.046875 196.203125 269.046875 194.765625 C 269.046875 193.332031 269.140625 191.878906 269.332031 190.425781 L 261.546875 185.933594 C 260.609375 185.390625 259.921875 184.496094 259.640625 183.449219 C 259.359375 182.402344 259.507812 181.285156 260.050781 180.34375 L 268.980469 164.871094 C 269.527344 163.933594 270.417969 163.246094 271.464844 162.964844 C 272.515625 162.6875 273.628906 162.835938 274.570312 163.375 L 282.371094 167.878906 C 284.695312 166.089844 287.207031 164.632812 289.875 163.519531 L 289.875 154.539062 C 289.875 152.277344 291.707031 150.445312 293.96875 150.445312 L 311.828125 150.445312 C 314.089844 150.445312 315.921875 152.277344 315.921875 154.539062 L 315.921875 163.519531 C 318.589844 164.628906 321.101562 166.089844 323.425781 167.878906 L 331.226562 163.375 C 332.167969 162.832031 333.289062 162.6875 334.332031 162.964844 C 335.378906 163.242188 336.277344 163.929688 336.816406 164.871094 L 345.746094 180.34375 C 346.285156 181.285156 346.433594 182.402344 346.15625 183.449219 C 345.878906 184.496094 345.191406 185.394531 344.25 185.933594 L 336.464844 190.425781 C 336.65625 191.878906 336.75 193.332031 336.75 194.765625 C 336.75 196.203125 336.65625 197.65625 336.464844 199.109375 L 344.25 203.605469 C 346.210938 204.734375 346.875 207.238281 345.746094 209.191406 L 336.816406 224.660156 C 336.269531 225.597656 335.378906 226.285156 334.332031 226.570312 C 333.289062 226.855469 332.167969 226.703125 331.226562 226.160156 L 323.425781 221.65625 C 321.101562 223.441406 318.589844 224.898438 315.921875 226.015625 L 315.921875 234.992188 C 315.921875 237.25 314.089844 239.082031 311.828125 239.082031 Z M 298.058594 230.902344 L 307.738281 230.902344 L 307.738281 223.15625 C 307.738281 221.367188 308.898438 219.789062 310.601562 219.253906 C 314.15625 218.136719 317.394531 216.253906 320.222656 213.660156 C 321.539062 212.449219 323.484375 212.238281 325.03125 213.132812 L 331.769531 217.023438 L 336.609375 208.640625 L 329.890625 204.761719 C 328.34375 203.871094 327.554688 202.074219 327.941406 200.332031 C 328.355469 198.464844 328.5625 196.589844 328.5625 194.765625 C 328.5625 192.941406 328.355469 191.070312 327.941406 189.203125 C 327.554688 187.460938 328.34375 185.664062 329.890625 184.773438 L 336.609375 180.894531 L 331.769531 172.511719 L 325.03125 176.402344 C 323.484375 177.289062 321.539062 177.082031 320.222656 175.875 C 317.394531 173.28125 314.15625 171.398438 310.601562 170.28125 C 308.898438 169.746094 307.738281 168.164062 307.738281 166.378906 L 307.738281 158.632812 L 298.058594 158.632812 L 298.058594 166.378906 C 298.058594 168.164062 296.898438 169.746094 295.195312 170.28125 C 291.640625 171.398438 288.402344 173.28125 285.578125 175.875 C 284.253906 177.082031 282.308594 177.292969 280.765625 176.402344 L 274.027344 172.511719 L 269.1875 180.894531 L 275.910156 184.773438 C 277.453125 185.664062 278.246094 187.460938 277.855469 189.203125 C 277.441406 191.070312 277.234375 192.941406 277.234375 194.765625 C 277.234375 196.589844 277.441406 198.464844 277.855469 200.332031 C 278.246094 202.074219 277.453125 203.871094 275.910156 204.761719 L 269.1875 208.640625 L 274.027344 217.023438 L 280.765625 213.132812 C 282.308594 212.238281 284.253906 212.449219 285.578125 213.660156 C 288.402344 216.253906 291.640625 218.136719 295.195312 219.253906 C 296.902344 219.789062 298.058594 221.371094 298.058594 223.15625 Z M 302.898438 211.117188 C 293.882812 211.117188 286.546875 203.78125 286.546875 194.761719 C 286.546875 185.746094 293.882812 178.410156 302.898438 178.410156 C 311.914062 178.410156 319.25 185.746094 319.25 194.761719 C 319.25 203.78125 311.914062 211.117188 302.898438 211.117188 Z M 302.898438 186.59375 C 298.394531 186.59375 294.726562 190.257812 294.726562 194.761719 C 294.726562 199.265625 298.394531 202.933594 302.898438 202.933594 C 307.402344 202.933594 311.070312 199.265625 311.070312 194.761719 C 311.070312 190.257812 307.402344 186.59375 302.898438 186.59375 Z M 302.898438 186.59375 " fill-opacity="1" fill-rule="nonzero"/><path fill="#5271ff" d="M 95.300781 133.828125 L 77.433594 133.828125 C 75.175781 133.828125 73.34375 131.996094 73.34375 129.734375 L 73.34375 120.757812 C 70.675781 119.644531 68.164062 118.1875 65.84375 116.398438 L 58.042969 120.902344 C 56.078125 122.027344 53.582031 121.359375 52.453125 119.40625 L 43.523438 103.9375 C 42.394531 101.980469 43.0625 99.476562 45.019531 98.347656 L 52.804688 93.851562 C 52.613281 92.394531 52.515625 90.941406 52.515625 89.511719 C 52.515625 88.078125 52.613281 86.625 52.804688 85.167969 L 45.019531 80.671875 C 44.082031 80.128906 43.394531 79.238281 43.113281 78.191406 C 42.832031 77.140625 42.976562 76.023438 43.523438 75.085938 L 52.453125 59.609375 C 53 58.675781 53.890625 57.988281 54.9375 57.703125 C 55.976562 57.417969 57.097656 57.570312 58.042969 58.113281 L 65.84375 62.617188 C 68.167969 60.832031 70.675781 59.375 73.34375 58.257812 L 73.34375 49.277344 C 73.34375 47.019531 75.175781 45.183594 77.433594 45.183594 L 95.300781 45.183594 C 97.558594 45.183594 99.394531 47.019531 99.394531 49.277344 L 99.394531 58.257812 C 102.0625 59.371094 104.570312 60.832031 106.894531 62.617188 L 114.695312 58.113281 C 115.636719 57.570312 116.757812 57.421875 117.800781 57.703125 C 118.847656 57.984375 119.742188 58.671875 120.285156 59.609375 L 129.214844 75.085938 C 129.753906 76.023438 129.902344 77.140625 129.625 78.191406 C 129.347656 79.238281 128.660156 80.132812 127.71875 80.671875 L 119.933594 85.167969 C 120.125 86.625 120.222656 88.074219 120.222656 89.511719 C 120.222656 90.945312 120.125 92.394531 119.933594 93.851562 L 127.71875 98.347656 C 129.675781 99.476562 130.34375 101.980469 129.214844 103.9375 L 120.285156 119.40625 C 119.148438 121.359375 116.65625 122.027344 114.695312 120.902344 L 106.894531 116.398438 C 104.570312 118.1875 102.0625 119.644531 99.394531 120.757812 L 99.394531 129.734375 C 99.394531 131.996094 97.558594 133.828125 95.300781 133.828125 Z M 81.527344 125.644531 L 91.210938 125.644531 L 91.210938 117.898438 C 91.210938 116.113281 92.367188 114.53125 94.074219 113.996094 C 97.628906 112.878906 100.867188 110.996094 103.695312 108.402344 C 105.011719 107.191406 106.957031 106.980469 108.503906 107.875 L 115.242188 111.765625 L 120.082031 103.382812 L 113.359375 99.503906 C 111.816406 98.613281 111.027344 96.820312 111.410156 95.078125 C 111.828125 93.203125 112.035156 91.328125 112.035156 89.511719 C 112.035156 87.695312 111.828125 85.816406 111.410156 83.941406 C 111.023438 82.199219 111.816406 80.40625 113.359375 79.515625 L 120.082031 75.636719 L 115.242188 67.253906 L 108.503906 71.144531 C 106.957031 72.035156 105.011719 71.824219 103.695312 70.617188 C 100.867188 68.023438 97.628906 66.140625 94.074219 65.023438 C 92.367188 64.488281 91.210938 62.910156 91.210938 61.121094 L 91.210938 53.375 L 81.527344 53.375 L 81.527344 61.121094 C 81.527344 62.910156 80.363281 64.488281 78.664062 65.023438 C 75.109375 66.136719 71.871094 68.019531 69.042969 70.617188 C 67.722656 71.828125 65.773438 72.035156 64.234375 71.144531 L 57.496094 67.253906 L 52.65625 75.636719 L 59.375 79.515625 C 60.921875 80.40625 61.707031 82.199219 61.328125 83.941406 C 60.910156 85.816406 60.703125 87.695312 60.703125 89.511719 C 60.703125 91.328125 60.910156 93.203125 61.328125 95.078125 C 61.710938 96.820312 60.921875 98.613281 59.375 99.503906 L 52.65625 103.382812 L 57.496094 111.765625 L 64.234375 107.875 C 65.773438 106.988281 67.726562 107.191406 69.042969 108.402344 C 71.871094 110.996094 75.109375 112.878906 78.664062 113.996094 C 80.367188 114.53125 81.527344 116.117188 81.527344 117.898438 Z M 86.367188 105.859375 C 77.347656 105.859375 70.015625 98.523438 70.015625 89.507812 C 70.015625 80.488281 77.347656 73.152344 86.367188 73.152344 C 95.382812 73.152344 102.722656 80.488281 102.722656 89.507812 C 102.722656 98.523438 95.386719 105.859375 86.367188 105.859375 Z M 86.367188 81.335938 C 81.863281 81.335938 78.195312 85 78.195312 89.507812 C 78.195312 94.011719 81.863281 97.675781 86.367188 97.675781 C 90.871094 97.675781 94.542969 94.011719 94.542969 89.507812 C 94.542969 85 90.875 81.335938 86.367188 81.335938 Z M 86.367188 81.335938 " fill-opacity="1" fill-rule="nonzero"/><path fill="#5271ff" d="M 167.347656 161.871094 C 165.769531 161.871094 164.269531 160.957031 163.59375 159.421875 L 161.242188 154.050781 C 159.503906 154.039062 157.785156 153.855469 156.101562 153.492188 L 152.636719 158.203125 C 151.300781 160.023438 148.742188 160.421875 146.917969 159.074219 L 136.390625 151.328125 C 135.519531 150.6875 134.933594 149.722656 134.769531 148.648438 C 134.605469 147.578125 134.878906 146.484375 135.519531 145.609375 L 138.984375 140.902344 C 138.140625 139.398438 137.453125 137.816406 136.925781 136.160156 L 131.097656 135.507812 C 128.851562 135.257812 127.234375 133.238281 127.484375 130.992188 L 128.929688 118.007812 C 129.046875 116.925781 129.589844 115.941406 130.4375 115.265625 C 131.285156 114.589844 132.359375 114.257812 133.445312 114.394531 L 139.257812 115.039062 C 139.699219 114.285156 140.179688 113.5625 140.6875 112.875 C 141.195312 112.1875 141.738281 111.519531 142.324219 110.875 L 139.976562 105.511719 C 139.542969 104.515625 139.515625 103.390625 139.910156 102.382812 C 140.304688 101.371094 141.085938 100.558594 142.078125 100.121094 L 154.050781 94.882812 C 156.125 93.976562 158.53125 94.921875 159.4375 96.988281 L 161.789062 102.359375 C 163.527344 102.375 165.242188 102.558594 166.929688 102.917969 L 170.394531 98.207031 C 171.035156 97.335938 172 96.75 173.074219 96.589844 C 174.132812 96.429688 175.238281 96.695312 176.113281 97.335938 L 186.640625 105.082031 C 187.511719 105.722656 188.097656 106.691406 188.261719 107.761719 C 188.425781 108.832031 188.152344 109.925781 187.511719 110.800781 L 184.046875 115.511719 C 184.890625 117.011719 185.578125 118.589844 186.105469 120.25 L 191.933594 120.898438 C 193.015625 121.015625 194 121.5625 194.675781 122.410156 C 195.355469 123.253906 195.664062 124.335938 195.546875 125.414062 L 194.101562 138.402344 C 193.851562 140.648438 191.8125 142.28125 189.585938 142.015625 L 183.769531 141.367188 C 183.332031 142.117188 182.851562 142.835938 182.347656 143.527344 C 182.347656 143.527344 182.347656 143.527344 182.347656 143.53125 C 181.839844 144.21875 181.292969 144.890625 180.710938 145.53125 L 183.058594 150.890625 C 183.96875 152.960938 183.023438 155.375 180.953125 156.28125 L 168.988281 161.523438 C 168.449219 161.757812 167.894531 161.867188 167.347656 161.867188 Z M 163.859375 145.734375 C 165.472656 145.734375 166.949219 146.683594 167.609375 148.183594 L 169.453125 152.390625 L 173.929688 150.429688 L 172.089844 146.234375 C 171.375 144.597656 171.800781 142.6875 173.148438 141.515625 C 174.136719 140.652344 175.019531 139.699219 175.765625 138.6875 C 176.515625 137.667969 177.160156 136.546875 177.691406 135.339844 C 178.414062 133.707031 180.121094 132.730469 181.886719 132.929688 L 186.4375 133.433594 L 186.976562 128.578125 L 182.410156 128.070312 C 180.632812 127.875 179.191406 126.546875 178.847656 124.792969 C 178.335938 122.199219 177.3125 119.835938 175.792969 117.765625 C 174.738281 116.320312 174.742188 114.359375 175.796875 112.921875 L 178.507812 109.246094 L 174.570312 106.351562 L 171.867188 110.027344 C 170.808594 111.46875 168.933594 112.050781 167.242188 111.472656 C 164.816406 110.636719 162.257812 110.363281 159.625 110.648438 C 157.851562 110.820312 156.152344 109.859375 155.4375 108.222656 L 153.59375 104.015625 L 149.117188 105.972656 L 150.957031 110.167969 C 151.671875 111.800781 151.246094 113.710938 149.90625 114.886719 C 148.90625 115.765625 148.027344 116.71875 147.28125 117.722656 C 146.539062 118.734375 145.890625 119.855469 145.355469 121.070312 C 144.632812 122.703125 142.976562 123.695312 141.160156 123.480469 L 136.613281 122.972656 L 136.070312 127.828125 L 140.636719 128.339844 C 142.414062 128.535156 143.855469 129.867188 144.203125 131.617188 C 144.710938 134.210938 145.734375 136.578125 147.253906 138.648438 C 148.308594 140.089844 148.308594 142.050781 147.253906 143.492188 L 144.546875 147.164062 L 148.480469 150.0625 L 151.183594 146.382812 C 152.246094 144.941406 154.121094 144.363281 155.808594 144.933594 C 158.230469 145.769531 160.792969 146.039062 163.421875 145.757812 C 163.570312 145.742188 163.71875 145.734375 163.863281 145.734375 Z M 179.054688 141.105469 Z M 161.492188 141.269531 C 158.730469 141.269531 156.046875 140.394531 153.777344 138.722656 C 147.980469 134.457031 146.734375 126.261719 150.996094 120.464844 C 155.269531 114.664062 163.460938 113.421875 169.261719 117.683594 C 172.070312 119.75 173.910156 122.789062 174.433594 126.238281 C 174.957031 129.6875 174.109375 133.136719 172.039062 135.945312 C 169.972656 138.757812 166.9375 140.59375 163.488281 141.117188 C 162.820312 141.21875 162.152344 141.269531 161.496094 141.269531 Z M 158.628906 132.132812 C 159.675781 132.902344 160.957031 133.214844 162.253906 133.023438 C 163.539062 132.828125 164.675781 132.144531 165.449219 131.09375 C 166.21875 130.042969 166.539062 128.753906 166.34375 127.46875 C 166.148438 126.179688 165.464844 125.046875 164.414062 124.273438 C 162.242188 122.675781 159.1875 123.140625 157.59375 125.308594 C 156 127.472656 156.46875 130.535156 158.632812 132.128906 Z M 158.628906 132.132812 " fill-opacity="1" fill-rule="nonzero"/></svg>