<svg xmlns="http://www.w3.org/2000/svg" xmlns:xlink="http://www.w3.org/1999/xlink" width="500" zoomAndPan="magnify" viewBox="0 0 375 374.999991" height="500" preserveAspectRatio="xMidYMid meet" version="1.0"><path fill="#5271ff" d="M 164.058594 23.4375 C 52.871094 23.4375 47.203125 96.597656 46.914062 154.765625 C 33.300781 160.039062 23.4375 173.007812 23.4375 187.496094 C 23.4375 206.148438 37.480469 234.371094 58.59375 234.371094 C 60.429688 234.371094 62.363281 234.21875 64.316406 233.960938 C 81.445312 287.398438 124.003906 328.121094 164.058594 328.121094 C 183.203125 328.121094 202.871094 318.632812 220.175781 302.847656 C 213.183594 303.960938 206.148438 304.6875 199.21875 304.6875 L 164.058594 304.6875 C 136.523438 304.6875 98.023438 270.507812 84.589844 219.722656 L 80.703125 206.363281 L 69.726562 209.097656 C 62.949219 210.816406 59.511719 210.9375 58.636719 210.9375 C 54.863281 210.449219 46.875 197.128906 46.875 187.496094 C 46.875 181.773438 52.808594 176.148438 59.316406 175.738281 L 70.308594 175.039062 L 70.308594 164.058594 C 70.308594 91.148438 76.640625 46.871094 164.058594 46.871094 C 166.773438 46.871094 199.726562 47.007812 221.363281 47.105469 L 213.421875 63.257812 C 212.226562 66.132812 207.890625 75.621094 193.046875 87.886719 C 175.761719 102.167969 145.898438 117.1875 93.75 117.1875 L 93.75 140.621094 C 150.488281 140.621094 186.523438 123.667969 207.96875 105.972656 C 219.453125 96.460938 226.40625 87.128906 230.800781 79.917969 C 254.898438 92.222656 257.808594 116.558594 257.808594 164.058594 L 257.808594 221.832031 C 255.15625 251.308594 214.648438 257.808594 199.21875 257.808594 L 187.5 257.808594 C 187.5 244.863281 177.011719 234.371094 164.058594 234.371094 C 151.113281 234.371094 140.625 244.863281 140.625 257.808594 C 140.625 270.757812 151.113281 281.246094 164.058594 281.246094 L 199.21875 281.246094 C 231.558594 281.246094 267.128906 267.558594 278.046875 237.300781 L 292.96875 237.300781 C 312.246094 237.300781 328.125 221.421875 328.125 202.148438 L 328.125 175.777344 C 328.125 156.503906 312.246094 140.621094 292.96875 140.621094 L 280.738281 140.621094 C 279.609375 106.988281 273.789062 75.40625 241.660156 58.960938 L 259.101562 23.804688 L 240.273438 23.707031 C 240.273438 23.707031 168.144531 23.433594 164.058594 23.433594 Z M 128.90625 164.058594 C 122.441406 164.058594 117.191406 169.3125 117.191406 175.777344 C 117.191406 182.242188 122.441406 187.496094 128.90625 187.496094 C 135.371094 187.496094 140.625 182.242188 140.625 175.777344 C 140.625 169.3125 135.371094 164.058594 128.90625 164.058594 Z M 199.21875 164.058594 C 192.753906 164.058594 187.5 169.3125 187.5 175.777344 C 187.5 182.242188 192.753906 187.496094 199.21875 187.496094 C 205.683594 187.496094 210.941406 182.242188 210.941406 175.777344 C 210.941406 169.3125 205.683594 164.058594 199.21875 164.058594 Z M 281.25 164.058594 L 292.96875 164.058594 C 299.570312 164.058594 304.691406 169.175781 304.691406 175.777344 L 304.691406 202.148438 C 304.691406 208.746094 299.570312 213.863281 292.96875 213.863281 L 281.25 213.863281 Z M 281.25 164.058594 " fill-opacity="1" fill-rule="nonzero"/></svg>