<svg xmlns="http://www.w3.org/2000/svg" xmlns:xlink="http://www.w3.org/1999/xlink" width="500" zoomAndPan="magnify" viewBox="0 0 375 374.999991" height="500" preserveAspectRatio="xMidYMid meet" version="1.0"><defs><clipPath id="389fb5a370"><path d="M 177 3.78125 L 198 3.78125 L 198 50 L 177 50 Z M 177 3.78125 " clip-rule="nonzero"/></clipPath><clipPath id="8b275909dd"><path d="M 30.648438 150 L 79 150 L 79 172 L 30.648438 172 Z M 30.648438 150 " clip-rule="nonzero"/></clipPath><clipPath id="7410d00cb3"><path d="M 164 360 L 211 360 L 211 371.28125 L 164 371.28125 Z M 164 360 " clip-rule="nonzero"/></clipPath><clipPath id="6e25c4fd95"><path d="M 296.070312 150.191406 L 344.148438 150.191406 L 344.148438 171.710938 L 296.070312 171.710938 Z M 296.070312 150.191406 " clip-rule="nonzero"/></clipPath></defs><path fill="#5271ff" d="M 272.03125 90.945312 L 298.40625 64.5625 C 302.480469 60.488281 302.480469 53.859375 298.40625 49.78125 C 294.320312 45.695312 287.703125 45.695312 283.613281 49.78125 L 257.605469 75.792969 C 262.859375 80.351562 267.65625 85.449219 272.03125 90.945312 " fill-opacity="1" fill-rule="nonzero"/><g clip-path="url(#389fb5a370)"><path fill="#5271ff" d="M 187.496094 49.152344 C 187.589844 49.152344 187.675781 49.152344 187.785156 49.152344 C 191.230469 49.152344 194.609375 49.371094 197.953125 49.722656 L 197.953125 14.289062 C 197.953125 8.523438 193.269531 3.851562 187.496094 3.851562 C 181.714844 3.851562 177.054688 8.523438 177.054688 14.289062 L 177.054688 49.722656 C 180.386719 49.371094 183.769531 49.152344 187.199219 49.152344 C 187.296875 49.152344 187.394531 49.152344 187.496094 49.152344 " fill-opacity="1" fill-rule="nonzero"/></g><path fill="#5271ff" d="M 102.964844 90.960938 C 107.332031 85.460938 112.109375 80.351562 117.351562 75.792969 L 91.359375 49.78125 C 87.285156 45.695312 80.65625 45.695312 76.582031 49.78125 C 72.480469 53.859375 72.480469 60.488281 76.582031 64.5625 L 102.964844 90.960938 " fill-opacity="1" fill-rule="nonzero"/><g clip-path="url(#8b275909dd)"><path fill="#5271ff" d="M 77.257812 165.113281 C 77.257812 160.0625 77.675781 155.113281 78.269531 150.246094 L 41.097656 150.246094 C 35.320312 150.246094 30.648438 154.929688 30.648438 160.695312 C 30.648438 166.476562 35.320312 171.15625 41.097656 171.15625 L 77.394531 171.15625 C 77.335938 169.175781 77.257812 167.167969 77.257812 165.113281 " fill-opacity="1" fill-rule="nonzero"/></g><path fill="#5271ff" d="M 76.582031 256.816406 C 72.480469 260.890625 72.480469 267.519531 76.582031 271.609375 C 80.65625 275.699219 87.285156 275.699219 91.359375 271.609375 L 110.519531 252.453125 C 106.199219 247.582031 101.6875 242.199219 97.453125 235.953125 L 76.582031 256.816406 " fill-opacity="1" fill-rule="nonzero"/><g clip-path="url(#7410d00cb3)"><path fill="#5271ff" d="M 192.164062 360.25 L 164.734375 360.25 C 164.722656 360.566406 164.671875 360.84375 164.671875 361.160156 C 164.671875 366.671875 173.140625 371.136719 180.984375 371.136719 L 194 371.136719 C 201.847656 371.136719 210.300781 366.671875 210.300781 361.160156 C 210.300781 360.84375 210.265625 360.566406 210.265625 360.25 L 192.164062 360.25 " fill-opacity="1" fill-rule="nonzero"/></g><path fill="#5271ff" d="M 214.132812 334.851562 L 160.863281 334.851562 C 155.355469 334.851562 150.890625 339.328125 150.890625 344.824219 C 150.890625 350.335938 155.355469 354.824219 160.863281 354.824219 L 214.132812 354.824219 C 219.628906 354.824219 224.097656 350.335938 224.097656 344.824219 C 224.097656 339.328125 219.628906 334.851562 214.132812 334.851562 " fill-opacity="1" fill-rule="nonzero"/><path fill="#5271ff" d="M 214.132812 309.660156 L 160.863281 309.660156 C 155.355469 309.660156 150.890625 314.125 150.890625 319.644531 C 150.890625 325.144531 155.355469 329.621094 160.863281 329.621094 L 214.132812 329.621094 C 219.628906 329.621094 224.097656 325.144531 224.097656 319.644531 C 224.097656 314.125 219.628906 309.660156 214.132812 309.660156 " fill-opacity="1" fill-rule="nonzero"/><path fill="#5271ff" d="M 182.128906 110.570312 C 170.035156 111.042969 161.800781 114.328125 155.527344 118.800781 C 149.273438 123.289062 144.882812 129.277344 141.742188 135.671875 C 135.445312 148.410156 134.910156 162.53125 134.945312 163.484375 L 134.945312 163.492188 C 134.945312 169.453125 130.101562 174.296875 124.152344 174.296875 C 118.195312 174.296875 113.351562 169.453125 113.351562 163.492188 C 113.351562 163.03125 113.375 157.546875 114.8125 149.628906 C 116.261719 141.722656 119.09375 131.320312 125.105469 121.066406 C 129.105469 114.253906 134.582031 107.503906 141.988281 101.957031 C 151.839844 94.535156 165.0625 89.535156 181.375 89 C 187.335938 88.792969 192.332031 93.453125 192.539062 99.414062 C 192.757812 105.363281 188.101562 110.371094 182.128906 110.570312 Z M 283.203125 165.113281 C 283.214844 143.425781 275.988281 123.363281 263.835938 107.320312 C 253.15625 93.199219 238.65625 82.140625 221.847656 75.644531 L 221.941406 75.183594 L 214.765625 73.078125 C 209.195312 71.460938 203.453125 70.339844 197.589844 69.746094 L 196.75 69.636719 L 196.691406 69.636719 C 193.828125 69.367188 190.839844 69.160156 187.722656 69.160156 L 187.261719 69.160156 C 184.148438 69.160156 181.15625 69.367188 178.285156 69.636719 L 178.25 69.636719 L 177.371094 69.746094 C 171.523438 70.339844 165.78125 71.460938 160.222656 73.078125 L 153.273438 75.109375 L 153.351562 75.574219 C 136.464844 82.054688 121.894531 93.148438 111.152344 107.320312 C 98.988281 123.363281 91.761719 143.425781 91.785156 165.113281 C 91.761719 180.65625 94.449219 193.453125 98.644531 204.039062 C 104.910156 219.914062 114.507812 230.640625 122.195312 238.753906 C 126.050781 242.816406 129.433594 246.273438 131.757812 249.214844 C 134.09375 252.207031 135.222656 254.503906 135.5625 256.332031 C 137.242188 265.210938 137.414062 276.414062 137.414062 279.261719 L 137.402344 279.808594 L 137.402344 280.074219 C 137.414062 292.921875 147.8125 303.296875 160.636719 303.296875 L 214.351562 303.296875 C 227.183594 303.296875 237.570312 292.910156 237.585938 280.074219 L 237.585938 279.953125 L 237.570312 279.808594 L 237.570312 279.285156 C 237.558594 276.472656 237.742188 265.234375 239.433594 256.34375 C 239.652344 255.101562 240.214844 253.703125 241.285156 251.988281 C 243.121094 248.984375 246.597656 245.222656 250.894531 240.738281 C 257.328125 233.972656 265.539062 225.4375 272.03125 213.292969 C 278.566406 201.191406 283.234375 185.523438 283.203125 165.113281 " fill-opacity="1" fill-rule="nonzero"/><path fill="#5271ff" d="M 277.542969 235.953125 C 273.300781 242.210938 268.789062 247.582031 264.46875 252.453125 L 283.613281 271.609375 C 287.703125 275.699219 294.320312 275.699219 298.40625 271.609375 C 302.480469 267.519531 302.480469 260.890625 298.40625 256.816406 L 277.542969 235.953125 " fill-opacity="1" fill-rule="nonzero"/><g clip-path="url(#6e25c4fd95)"><path fill="#5271ff" d="M 333.890625 150.246094 L 296.726562 150.246094 C 297.324219 155.113281 297.710938 160.0625 297.710938 165.113281 C 297.710938 167.167969 297.664062 169.175781 297.589844 171.15625 L 333.890625 171.15625 C 339.667969 171.15625 344.351562 166.476562 344.351562 160.695312 C 344.351562 154.929688 339.667969 150.246094 333.890625 150.246094 " fill-opacity="1" fill-rule="nonzero"/></g></svg>