<svg xmlns="http://www.w3.org/2000/svg" xmlns:xlink="http://www.w3.org/1999/xlink" width="500" zoomAndPan="magnify" viewBox="0 0 375 374.999991" height="500" preserveAspectRatio="xMidYMid meet" version="1.0"><defs><clipPath id="d427b7c0f1"><path d="M 8.535156 54 L 250 54 L 250 370.785156 L 8.535156 370.785156 Z M 8.535156 54 " clip-rule="nonzero"/></clipPath><clipPath id="9a0839f753"><path d="M 303 91 L 373.785156 91 L 373.785156 160 L 303 160 Z M 303 91 " clip-rule="nonzero"/></clipPath><clipPath id="4f019eb5d2"><path d="M 57 5.535156 L 300 5.535156 L 300 321 L 57 321 Z M 57 5.535156 " clip-rule="nonzero"/></clipPath></defs><g clip-path="url(#d427b7c0f1)"><path fill="#5271ff" d="M 38.882812 286.726562 L 38.882812 54.589844 C 21.542969 56.199219 7.914062 70.691406 7.914062 88.53125 L 7.914062 336.277344 C 7.914062 355.105469 23.152344 370.339844 41.980469 370.339844 L 215.402344 370.339844 C 233.242188 370.339844 247.734375 356.714844 249.34375 339.371094 L 91.53125 339.371094 C 62.542969 339.371094 38.882812 315.710938 38.882812 286.726562 Z M 38.882812 286.726562 " fill-opacity="1" fill-rule="nonzero"/></g><path fill="#5271ff" d="M 222.398438 207.628906 L 291.203125 128.976562 L 342.480469 173.835938 L 273.675781 252.488281 Z M 222.398438 207.628906 " fill-opacity="1" fill-rule="nonzero"/><path fill="#5271ff" d="M 203.160156 281.332031 C 205.839844 283.671875 209.503906 284.289062 212.800781 282.941406 C 212.804688 282.941406 245.679688 269.488281 258.757812 264.136719 L 212.824219 223.957031 L 200.292969 271.992188 C 199.40625 275.402344 200.519531 279.007812 203.160156 281.332031 Z M 203.160156 281.332031 " fill-opacity="1" fill-rule="nonzero"/><g clip-path="url(#9a0839f753)"><path fill="#5271ff" d="M 361.703125 100.125 C 347.585938 87.78125 326.019531 89.203125 313.644531 103.34375 L 303.445312 114.996094 L 354.714844 159.855469 L 364.910156 148.203125 C 370.898438 141.359375 373.875 132.585938 373.269531 123.507812 C 372.664062 114.429688 368.5625 106.125 361.703125 100.125 Z M 361.703125 100.125 " fill-opacity="1" fill-rule="nonzero"/></g><g clip-path="url(#4f019eb5d2)"><path fill="#5271ff" d="M 271.097656 279.167969 C 271.097656 279.167969 219.855469 300.136719 219.84375 300.140625 C 210.128906 304.117188 198.535156 302.007812 190.9375 295.328125 C 183.949219 289.183594 180.824219 280.238281 181.851562 271.242188 L 103.917969 271.242188 C 98.789062 271.242188 94.625 267.082031 94.625 261.953125 C 94.625 256.824219 98.789062 252.660156 103.917969 252.660156 L 186.132812 252.660156 L 194.210938 221.695312 L 103.917969 221.695312 C 98.789062 221.695312 94.625 217.53125 94.625 212.402344 C 94.625 207.273438 98.789062 203.113281 103.917969 203.113281 L 201.78125 203.113281 C 201.953125 202.902344 202.058594 202.652344 202.234375 202.445312 L 293.785156 97.820312 L 215.402344 97.820312 C 210.273438 97.820312 206.113281 93.660156 206.113281 88.53125 L 206.113281 4.914062 L 91.53125 4.914062 C 72.742188 4.914062 57.464844 20.195312 57.464844 38.980469 L 57.464844 286.726562 C 57.464844 305.511719 72.742188 320.792969 91.53125 320.792969 L 264.953125 320.792969 C 283.738281 320.792969 299.015625 305.511719 299.015625 286.726562 L 299.015625 251.722656 L 281.523438 271.714844 C 278.597656 275.015625 275.015625 277.558594 271.097656 279.167969 Z M 103.917969 54.464844 L 153.464844 54.464844 C 158.59375 54.464844 162.757812 58.625 162.757812 63.753906 C 162.757812 68.882812 158.59375 73.046875 153.464844 73.046875 L 103.917969 73.046875 C 98.789062 73.046875 94.625 68.882812 94.625 63.753906 C 94.625 58.625 98.789062 54.464844 103.917969 54.464844 Z M 103.917969 104.015625 L 153.464844 104.015625 C 158.59375 104.015625 162.757812 108.175781 162.757812 113.304688 C 162.757812 118.433594 158.59375 122.59375 153.464844 122.59375 L 103.917969 122.59375 C 98.789062 122.59375 94.625 118.433594 94.625 113.304688 C 94.625 108.175781 98.789062 104.015625 103.917969 104.015625 Z M 103.917969 153.5625 L 203.015625 153.5625 C 208.144531 153.5625 212.304688 157.726562 212.304688 162.855469 C 212.304688 167.984375 208.144531 172.144531 203.015625 172.144531 L 103.917969 172.144531 C 98.789062 172.144531 94.625 167.984375 94.625 162.855469 C 94.625 157.726562 98.789062 153.5625 103.917969 153.5625 Z M 103.917969 153.5625 " fill-opacity="1" fill-rule="nonzero"/></g><path fill="#5271ff" d="M 224.695312 10.359375 L 224.695312 79.238281 L 293.574219 79.238281 Z M 224.695312 10.359375 " fill-opacity="1" fill-rule="nonzero"/></svg>